<svg width="124" height="32" viewBox="0 0 124 32" fill="none" xmlns="http://www.w3.org/2000/svg">
<g clip-path="url(#clip0_2239_2125)">
<path d="M8.24636 10.1759V30.3154C8.24636 30.8701 7.79169 31.3221 7.23369 31.3221H3.76169C3.20369 31.3221 2.74902 30.8701 2.74902 30.3154V10.1691C2.74902 9.60754 3.20369 9.15558 3.76858 9.16243H7.23369C7.79169 9.16928 8.24636 9.62124 8.24636 10.1759Z" fill="#FF8800"/>
<path d="M35.0713 21.5365V30.3223C35.0713 30.877 34.6236 31.3289 34.0587 31.3289H30.5867C30.0287 31.3289 29.574 30.877 29.574 30.3223V27.6037L35.0782 21.5433L35.0713 21.5365Z" fill="#005CAF"/>
<path d="M83.5419 9.23089H80.1112C79.5532 9.23089 79.0986 9.68285 79.0986 10.2375V10.7717C79.0986 11.2168 78.5406 11.4564 78.2306 11.1346C76.7701 9.60752 74.4417 8.69676 72.0168 8.69676C65.5206 8.65567 60.4297 12.6411 60.4297 20.2628C60.4297 27.8844 65.3001 32.0479 71.879 32.0068C73.9112 31.9657 76.6186 31.1098 78.2237 29.3704C78.5268 29.0349 79.0917 29.2677 79.0917 29.7197V30.3291C79.0917 30.8838 79.5464 31.3357 80.1044 31.3357H83.535C84.093 31.3357 84.5477 30.8838 84.5477 30.3291V10.2375C84.5477 9.68285 84.093 9.23089 83.535 9.23089H83.5419ZM73.1879 26.9531C69.2268 27.275 65.9339 24.7207 65.9339 20.2628C65.9339 15.8048 69.2199 13.2985 73.1741 13.6067C81.1721 14.2435 81.1859 26.2957 73.1879 26.9531Z" fill="#005CAF"/>
<path d="M114.576 8.91591C111.917 8.91591 109.533 9.67602 107.618 12.244C107.398 12.5384 106.943 12.5042 106.764 12.1755C105.4 9.71711 102.975 8.82004 100.55 8.82004C98.8556 8.82004 96.8784 9.33363 95.5489 10.6895C95.2389 11.0113 94.6878 10.7785 94.6878 10.3334V10.1896C94.6878 9.63493 94.2331 9.18297 93.6751 9.18297H90.1962C89.6382 9.18297 89.1836 9.63493 89.1836 10.1896V30.3154C89.1836 30.8701 89.6382 31.3221 90.1962 31.3221H93.6682C94.2262 31.3221 94.6809 30.8701 94.6809 30.3154V19.489C94.6809 16.5787 96.4376 13.9354 99.4136 13.9354C102.39 13.9354 103.967 16.5787 103.967 19.489V30.3154C103.967 30.8701 104.422 31.3221 104.98 31.3221H108.452C109.01 31.3221 109.464 30.8701 109.464 30.3154V19.489C109.464 16.5787 111.311 14.0244 114.287 14.0244C117.263 14.0244 118.482 16.4896 118.482 19.4V30.3154C118.482 30.8701 118.937 31.3221 119.495 31.3221H122.967C123.525 31.3221 123.979 30.8701 123.979 30.3154V19.4C123.979 12.7644 120.866 8.91591 114.555 8.91591H114.576Z" fill="#005CAF"/>
<path d="M9.96802 0H1.01246C0.137572 0 -0.323984 1.03403 0.261572 1.68457L4.73935 6.62187C5.13891 7.06698 5.84157 7.06698 6.24113 6.62187L10.7189 1.68457C11.3114 1.03403 10.8429 0 9.96802 0Z" fill="#FF8800"/>
<path d="M35.0713 19.7218V21.5433L29.5671 27.6037V19.7629C29.5671 16.4691 27.7898 13.9422 24.4004 13.8532C21.142 13.7642 18.5173 16.517 18.5173 19.7561V30.3223C18.5173 30.877 18.0696 31.3289 17.5047 31.3289H14.0809C13.516 31.3289 13.0682 30.877 13.0682 30.3223V10.1965C13.0682 9.63493 13.516 9.18982 14.0809 9.18982H17.5116C18.0764 9.18982 18.5242 9.63493 18.5242 10.1965V10.9086C18.5242 11.34 19.0409 11.566 19.3647 11.2784C21.2453 9.66917 23.2156 8.87482 25.6473 8.87482C30.876 8.87482 35.0644 12.7712 35.0644 19.7218H35.0713Z" fill="#FF8800"/>
<path d="M59.7267 30.0621L50.4749 19.9615C50.3096 19.7697 50.2958 19.4821 50.4749 19.2904L58.3833 10.4841C58.8173 10.0047 58.466 9.22406 57.8116 9.22406H53.1202C52.824 9.22406 52.5347 9.35417 52.3487 9.587L46.066 17.0375C45.756 17.4004 45.1636 17.1813 45.1636 16.7156V10.395L39.6662 16.4554V30.3154C39.6662 30.8701 40.114 31.3221 40.6789 31.3221H44.144C44.7089 31.3221 45.1567 30.8701 45.1567 30.3154V22.6801C45.1567 22.2144 45.7422 21.9953 46.0522 22.3514L53.5611 30.9728C53.7609 31.192 54.0296 31.3221 54.3258 31.3221H59.1618C59.8162 31.3221 60.1676 30.5414 59.7267 30.0552V30.0621Z" fill="#005CAF"/>
<path d="M45.1633 1.00663C45.1633 0.44511 44.7155 0 44.1506 0H40.6855C40.1206 0 39.6729 0.44511 39.6729 1.00663V16.4622L45.1702 10.4019V1.00663H45.1633Z" fill="#FF8800"/>
</g>
<defs>
<clipPath id="clip0_2239_2125">
<rect width="124" height="32" fill="white"/>
</clipPath>
</defs>
</svg>
