<svg width="118" height="25" viewBox="0 0 118 25" fill="none" xmlns="http://www.w3.org/2000/svg">
<g clip-path="url(#clip0_2239_2107)">
<path d="M11.6199 6.04675C17.0345 6.04675 20.7164 8.63945 21.5827 11.8259L17.1536 13.5874C16.6771 11.6082 14.5005 9.93584 11.3709 9.93584C10.5332 9.8983 9.6959 10.0166 8.90975 10.2836C8.1236 10.5506 7.40498 10.9607 6.79743 11.4891C6.18988 12.0175 5.70608 12.653 5.37536 13.3573C5.04463 14.0616 4.87387 14.8199 4.87339 15.5864C4.87339 18.6343 7.52653 20.3364 10.7644 20.3364C12.0418 20.3957 13.3077 20.0915 14.388 19.4659C15.4682 18.8403 16.3096 17.924 16.7963 16.8432L20.7922 18.8223C19.0812 22.1077 15.5942 24.1958 10.537 24.1958C4.25612 24.1958 0.000304548 20.7125 0.000304548 15.7249C-0.0430118 10.4702 4.53771 6.04675 11.6199 6.04675Z" fill="#B7B7B8"/>
<path d="M25.7971 0H30.8867L29.5439 8.54013C30.4221 7.7222 31.4754 7.0786 32.6382 6.64951C33.8009 6.22043 35.0478 6.0151 36.3012 6.04637C41.4994 6.04637 44.7806 9.3021 44.0116 14.2203L42.5173 23.849H37.4385L38.7813 15.2199C39.2142 12.2511 37.579 10.2719 34.3087 10.2719C31.0383 10.2719 28.9591 12.3006 28.526 15.3188L27.2157 23.8886H22.1152L25.7971 0Z" fill="#B7B7B8"/>
<path d="M63.2008 17.3478L67.3485 19.1983C65.4965 22.3254 61.674 24.2156 56.92 24.2156C50.7692 24.2156 46.3076 20.6332 46.3076 15.7446C46.3076 10.4999 51.0616 6.04675 58.0029 6.04675C64.1862 6.04675 68.2146 9.47073 68.2146 14.1218C68.2088 14.8939 68.1146 15.6635 67.9332 16.4176H51.1697C51.6463 18.9411 54.1154 20.4353 57.169 20.4353C58.3905 20.4916 59.6046 20.2318 60.6718 19.6855C61.7386 19.1393 62.6154 18.3291 63.2008 17.3478ZM51.5704 13.2608H63.2657C63.0927 11.4004 61.1002 9.76759 57.6672 9.76759C56.3874 9.7362 55.126 10.051 54.0411 10.6725C52.9566 11.294 52.0969 12.1945 51.5704 13.2608Z" fill="#B7B7B8"/>
<path d="M81.9558 6.04675C87.3701 6.04675 91.0415 8.63945 91.9186 11.8259L87.4785 13.5874C87.0128 11.6082 84.8254 9.93584 81.7066 9.93584C80.8691 9.8983 80.0319 10.0166 79.2455 10.2836C78.4594 10.5506 77.7409 10.9607 77.1334 11.4891C76.5258 12.0175 76.0421 12.653 75.7111 13.3573C75.3805 14.0616 75.2097 14.8199 75.2091 15.5864C75.2091 18.6343 77.8622 20.3364 81.0894 20.3364C82.3617 20.3908 83.6212 20.0843 84.6951 19.4589C85.7691 18.8335 86.6053 17.9198 87.0887 16.8432L91.0955 18.8223C89.3845 22.1077 85.8974 24.1958 80.8404 24.1958C74.5488 24.1958 70.3036 20.7125 70.3036 15.7249C70.2927 10.4702 74.8736 6.04675 81.9558 6.04675Z" fill="#B7B7B8"/>
<path d="M117.475 6.38282H109.537L99.0871 13.1912L101.112 0H96.0226L92.3516 23.849H97.4413L98.8272 14.8339L108.216 23.849H115.06L104.989 14.2203L117.475 6.38282Z" fill="#B7B7B8"/>
</g>
<defs>
<clipPath id="clip0_2239_2107">
<rect width="117.716" height="24.4437" fill="white"/>
</clipPath>
</defs>
</svg>
