<svg width="75" height="30" viewBox="0 0 75 30" fill="none" xmlns="http://www.w3.org/2000/svg">
<g clip-path="url(#clip0_2239_2092)">
<path d="M66.5632 4.1674C61.9319 4.1674 58.1632 7.95238 58.1632 12.6054C58.1632 17.2584 61.9319 21.0434 66.5632 21.0434C71.1934 21.0434 74.961 17.2584 74.961 12.6054C74.961 7.95238 71.1934 4.1674 66.5632 4.1674ZM66.5632 17.0444C64.1275 17.0444 62.1438 15.0509 62.1438 12.6054C62.1438 10.1588 64.1275 8.1664 66.5632 8.1664C68.9967 8.1664 70.9816 10.1588 70.9816 12.6054C70.9816 15.052 68.9989 17.0444 66.5632 17.0444ZM41.8282 10.8965L40.3594 10.1599C39.7217 9.84271 39.3219 9.59718 39.1612 9.41575C39.0079 9.25499 38.9206 9.04249 38.9167 8.82041C38.9167 8.53578 39.0449 8.29568 39.297 8.10882C39.5468 7.91327 39.9021 7.82419 40.3529 7.82419C41.1775 7.82419 42.0911 8.32176 43.0971 9.3245L45.5763 6.8334C44.9671 6.00388 44.1705 5.3301 43.2514 4.86703C42.3444 4.41067 41.3422 4.17539 40.3269 4.18043C38.8135 4.18043 37.5642 4.62694 36.5908 5.52647C35.6184 6.426 35.1296 7.50696 35.1296 8.77478C35.1296 10.7412 36.4169 12.3794 39.0004 13.6798L40.3529 14.3588C41.5186 14.9487 42.0988 15.5495 42.0988 16.1709C42.0988 16.5077 41.9369 16.7989 41.6153 17.0574C41.2937 17.3171 40.8679 17.4398 40.3399 17.4398C39.851 17.4398 39.2904 17.2715 38.6592 16.9292C38.0303 16.5925 37.4708 16.1399 37.0101 15.5951L34.544 18.2937C35.9346 20.1189 37.789 21.038 40.1204 21.038C41.8728 21.038 43.271 20.5589 44.3074 19.6072C45.3503 18.6566 45.8718 17.4659 45.8718 16.0417C45.8718 14.9737 45.5828 14.0362 45.0092 13.2399C44.4302 12.4435 43.3677 11.6678 41.8282 10.8976V10.8965ZM16.889 19.2052V4.50309H12.902V5.48736C11.5585 4.62386 9.99482 4.16561 8.39781 4.1674C3.76761 4.1674 0 7.95238 0 12.6054C0 17.2584 3.76761 21.0434 8.39889 21.0434C9.97675 21.0458 11.5227 20.5993 12.8564 19.756C12.8564 19.8853 12.8498 20.0016 12.8498 20.0798C12.8498 22.5252 10.8661 24.5188 8.43148 24.5188C7.60367 24.5169 6.79324 24.2811 6.09357 23.8387L4.12177 27.3075C5.42198 28.1006 6.91499 28.5215 8.438 28.5243C13.0693 28.5243 16.889 24.7382 16.889 20.0852C16.889 19.9049 16.901 19.3736 16.889 19.2052ZM8.39889 17.0433C5.96538 17.0433 3.98054 15.0509 3.98054 12.6054C3.98054 10.1588 5.96429 8.1664 8.39889 8.1664C10.8335 8.1664 12.8172 10.1588 12.8172 12.6054C12.8172 15.0509 10.8335 17.0444 8.39889 17.0444V17.0433ZM32.771 4.49766H28.7644V12.5196C28.7709 13.6592 28.7709 15.6267 27.9344 16.4675C27.5346 16.8684 27.0968 17.2313 26.1755 17.2313C25.2477 17.2313 24.8099 16.8684 24.4112 16.4675C23.5736 15.6256 23.5801 13.6527 23.5856 12.5196V4.49766H19.58V12.4957C19.567 14.1448 19.5474 17.2063 21.5573 19.2378C22.736 20.4285 24.1407 21.0369 26.169 21.0369C28.1984 21.0369 29.602 20.435 30.7807 19.2378C32.7906 17.2063 32.771 14.1383 32.758 12.4957L32.771 4.49766ZM55.4755 16.3263C55.1539 16.5718 54.3739 17.1161 53.4917 16.9933C52.7704 16.8956 52.1848 16.3654 52.0946 14.5924V7.94043H56.8031V4.48462H52.0946V0H48.1011V0.879977H48.0946V14.0688C48.0946 16.1655 48.6225 21.0369 53.4852 21.0369C55.9459 20.9989 57.4397 19.6593 58.0655 19.1357L58.1491 19.0705L55.7525 16.1068C55.746 16.1123 55.5787 16.2481 55.4755 16.3263Z" fill="#B7B7B8"/>
</g>
<defs>
<clipPath id="clip0_2239_2092">
<rect width="74.961" height="29.3326" fill="white"/>
</clipPath>
</defs>
</svg>
