<svg width="110" height="30" viewBox="0 0 110 30" fill="none" xmlns="http://www.w3.org/2000/svg">
<g clip-path="url(#clip0_2239_2100)">
<mask id="mask0_2239_2100" style="mask-type:luminance" maskUnits="userSpaceOnUse" x="0" y="0" width="111" height="30">
<path d="M110.003 0H0V29.3342H110.003V0Z" fill="white"/>
</mask>
<g mask="url(#mask0_2239_2100)">
<path d="M7.6115 9.91415C4.98789 9.91415 3.69998 12.2263 3.69998 15.3137V23.0507H0V6.72375H3.63516V10.9596H3.69828C4.47444 8.35526 6.02164 6.25085 8.40812 6.25085C10.0867 6.25085 10.7946 6.83691 10.7946 6.83691L9.12458 10.1996C9.12458 10.1996 8.59236 9.91415 7.6115 9.91415ZM52.3405 12.1554V23.049H48.7361V13.4812C48.7361 10.735 47.8747 9.28079 45.674 9.28079C43.3951 9.28079 42.2931 11.12 42.2931 14.6482V23.0472H38.7211V13.4812C38.7211 10.8414 37.8698 9.28079 35.6915 9.28079C33.2044 9.28079 32.2473 11.4595 32.2473 14.6482V23.0472H28.6122V6.72375H32.2473V10.4208H32.2798C32.8461 7.86209 34.3917 6.28295 36.9998 6.28295C39.5859 6.28295 41.2713 7.67293 41.911 10.1371C42.52 7.76582 44.1406 6.28295 46.6311 6.28295C50.1058 6.28295 52.3405 8.46167 52.3405 12.1554ZM18.0666 6.25085C14.7215 6.25085 12.5329 7.82155 11.5349 10.6573L14.614 11.777C15.1751 10.0661 16.3454 9.09163 18.1314 9.09163C20.141 9.09163 21.3214 9.97663 21.3214 11.3345C21.3214 12.7228 20.3815 13.0133 18.2593 13.3562C15.8985 13.7362 10.2846 13.8612 10.2846 18.5969C10.2846 21.3718 12.6045 23.4593 16.0895 23.4593C18.7098 23.4593 20.494 22.3886 21.3196 20.3957H21.352V23.049H24.9565V13.0083C24.9549 8.61535 22.7441 6.25085 18.0666 6.25085ZM21.4153 15.3643C21.4153 18.7877 19.7214 20.9868 17.0141 20.9868C15.1002 20.9868 13.9521 19.9125 13.9521 18.3639C13.9521 16.9114 15.1326 15.9032 17.3962 15.4876C19.7127 15.062 20.8796 14.5367 21.4153 13.2768V15.3643ZM65.1617 6.28295C62.4051 6.28295 60.5831 7.79791 59.8036 10.0746V6.72375H55.9757V29.3335H59.7711V19.6999H59.8036C60.6479 22.1657 62.4067 23.5218 65.1617 23.5218C69.5303 23.5218 72.6572 19.9228 72.6572 14.8374C72.6554 9.78747 69.5303 6.28295 65.1617 6.28295ZM64.2201 20.4919C61.1939 20.4919 59.5154 18.2962 59.5154 14.8863C59.5154 11.4764 61.3935 9.28079 64.2201 9.28079C67.045 9.28079 68.9247 11.5828 68.9247 14.8863C68.9247 18.1917 67.0466 20.4919 64.2201 20.4919Z" fill="#B7B7B8"/>
<path d="M110.256 22.9755V23.0775L95.4423 23.0826V22.9755C97.5785 21.7692 99.053 20.5404 100.38 19.2563H106.463L110.256 22.9755ZM106.586 3.68314L102.831 0H102.722C102.722 0 102.785 6.86403 96.4805 13.1067C90.3114 19.2165 83.0566 19.2303 83.0566 19.2303V19.3374L86.882 23.0844C86.882 23.0844 94.0311 23.1551 100.346 16.9607C106.639 10.7871 106.586 3.68314 106.586 3.68314Z" fill="#B7B7B8"/>
</g>
</g>
<defs>
<clipPath id="clip0_2239_2100">
<rect width="110.003" height="29.3342" fill="white"/>
</clipPath>
</defs>
</svg>
