<svg width="142" height="30" viewBox="0 0 142 30" fill="none" xmlns="http://www.w3.org/2000/svg">
<g clip-path="url(#clip0_2239_2116)">
<mask id="mask0_2239_2116" style="mask-type:luminance" maskUnits="userSpaceOnUse" x="0" y="0" width="142" height="30">
<path d="M141.721 0H0V29.331H141.721V0Z" fill="white"/>
</mask>
<g mask="url(#mask0_2239_2116)">
<path d="M49.0988 22.6046H44.5919C43.8233 22.6046 43.1945 21.9748 43.1945 21.2049V8.6781C43.1945 7.90832 43.8233 7.27844 44.5919 7.27844H49.0988C53.1165 7.27844 56.3657 10.7076 56.3657 14.9416C56.3657 19.1755 53.1165 22.6046 49.0988 22.6046ZM49.0988 10.0777H45.9894V19.8053H49.0988C51.5793 19.8053 53.6059 17.6359 53.6059 14.9416C53.6059 12.2472 51.5793 10.0777 49.0988 10.0777ZM66.0433 22.6046C65.2746 22.6046 64.6458 21.9748 64.6458 21.2049V8.6781C64.6458 7.90832 65.2746 7.27844 66.0433 7.27844C66.8119 7.27844 67.4408 7.90832 67.4408 8.6781V21.2049C67.4408 21.9748 66.8119 22.6046 66.0433 22.6046ZM83.7913 16.5861C83.0226 16.5861 82.3938 15.9563 82.3938 15.1865C82.3938 14.4167 83.0226 13.7868 83.7913 13.7868H87.215C87.9837 13.7868 88.6128 14.4167 88.6128 15.1865V19.5604C88.6128 19.9453 88.473 20.2952 88.1936 20.5752C86.831 21.8698 85.0486 22.6046 83.1624 22.6046C79.0396 22.6046 75.7557 19.1405 75.7557 14.9416C75.7557 10.7776 79.0396 7.27844 83.1624 7.27844C85.0486 7.27844 86.831 8.01328 88.1936 9.30792C88.7523 9.83281 88.7874 10.7076 88.2279 11.2675C87.7043 11.8273 86.831 11.8623 86.2715 11.3024C85.3982 10.4977 84.3151 10.0428 83.1624 10.0428C80.612 10.0428 78.5158 12.2122 78.5158 14.9065C78.5158 17.6009 80.612 19.7703 83.1624 19.7703C84.1402 19.7703 85.0837 19.4554 85.8524 18.8606V16.5161H83.7913V16.5861ZM98.4995 22.6046C97.7309 22.6046 97.1018 21.9748 97.1018 21.2049V8.6781C97.1018 7.90832 97.7309 7.27844 98.4995 7.27844C99.2681 7.27844 99.8972 7.90832 99.8972 8.6781V21.2049C99.8972 21.9748 99.2681 22.6046 98.4995 22.6046ZM119.951 10.0777H116.038V21.2049C116.038 21.9748 115.409 22.6046 114.641 22.6046C113.872 22.6046 113.243 21.9748 113.243 21.2049V10.0777H109.33C108.561 10.0777 107.932 9.44792 107.932 8.6781C107.932 7.90832 108.561 7.27844 109.33 7.27844H119.951C120.72 7.27844 121.348 7.90832 121.348 8.6781C121.348 9.44792 120.72 10.0777 119.951 10.0777ZM139.236 11.3375C138.433 10.7076 137.349 10.2877 136.162 10.1127C135.043 9.97275 133.961 10.1127 133.192 10.4626C132.179 10.9526 132.179 11.5824 132.179 11.8273C132.144 12.5622 132.389 12.8071 132.807 13.017C133.472 13.332 134.589 13.4369 135.638 13.5419C136.93 13.6818 138.258 13.7868 139.376 14.3117C140.878 15.0115 141.647 16.3412 141.612 18.0908C141.577 19.8053 140.564 21.135 138.991 21.8699C137.629 22.4997 135.917 22.6396 134.484 22.4647C132.807 22.2548 131.236 21.6249 130.048 20.6801C129.454 20.1902 129.349 19.3155 129.803 18.7206C130.292 18.1257 131.13 18.0208 131.759 18.4757C132.563 19.1055 133.646 19.5254 134.834 19.6653C135.952 19.8053 137.035 19.6653 137.804 19.3155C138.223 19.1055 138.817 18.7556 138.817 17.9508C138.852 17.216 138.608 16.971 138.188 16.7611C137.524 16.4461 136.406 16.3412 135.358 16.2362C134.066 16.0963 132.738 15.9913 131.62 15.4664C130.117 14.7666 129.349 13.4369 129.384 11.6873C129.419 9.97275 130.432 8.64307 132.005 7.90831C133.262 7.31342 134.834 7.10347 136.476 7.31342C138.153 7.52337 139.725 8.15321 140.913 9.09797C141.507 9.58786 141.612 10.4626 141.158 11.0575C140.703 11.7224 139.83 11.8273 139.236 11.3375Z" fill="#B7B7B8"/>
<path fill-rule="evenodd" clip-rule="evenodd" d="M27.8578 24.0388C27.4735 24.5287 26.7397 24.5637 26.2855 24.1788C25.7964 23.7939 25.7615 23.0591 26.1458 22.6041C27.9277 20.4347 29.0105 17.7053 29.0105 14.6611C29.0455 9.51738 25.9012 5.1085 21.4992 3.21895C21.4992 3.21895 21.4642 3.21895 21.4642 3.18398C20.9052 2.93902 20.6606 2.27419 20.9052 1.71433C21.1498 1.15447 21.8136 0.909531 22.3726 1.15447C27.6133 3.39392 31.2816 8.60766 31.2816 14.6261C31.2816 18.1953 29.9888 21.4844 27.8578 24.0388ZM17.4814 2.27419L9.7603 2.2392H9.72543C9.09649 2.2392 8.60743 1.71433 8.60743 1.08449C8.6423 0.489635 9.13146 -0.000244141 9.7603 -0.000244141H16.6429C16.9573 -0.000244141 17.3067 -0.000244141 17.6211 0.0347472C18.2151 0.0697385 18.6693 0.524627 18.6693 1.11948C18.6693 1.15447 18.6693 1.22445 18.6693 1.25945C18.6693 1.8543 18.1103 2.34418 17.4814 2.27419ZM22.8966 6.6481C23.1412 6.85805 23.3159 7.17299 23.3508 7.4879C23.3508 7.76783 23.2809 8.04779 23.1062 8.25771C22.722 8.74759 22.0232 8.81758 21.5341 8.43268C20.2065 7.38294 18.5295 6.78807 16.7128 6.78807H3.85598H3.82105C3.19219 6.78807 2.70306 6.26321 2.70306 5.63336C2.70306 5.00351 3.22711 4.51363 3.85598 4.51363H16.6779C19.0186 4.51363 21.1847 5.31845 22.8966 6.6481ZM22.2678 14.6261C22.2678 17.7053 19.7523 20.2948 16.6429 20.2597H12.4505H12.4155C11.7867 20.2597 11.2975 19.7349 11.2975 19.105V14.6261C11.2975 13.9962 11.7867 13.5064 12.4155 13.4714H12.4505C13.0794 13.4714 13.5684 13.9962 13.5684 14.6261V17.9853H16.6429C18.5295 17.9853 19.9969 16.4807 19.9969 14.6261C19.9969 12.7366 18.4945 11.267 16.6429 11.267H1.20077H1.16583C0.536969 11.267 0.0478516 10.7421 0.0478516 10.1122C0.0478516 9.48243 0.571905 8.99255 1.20077 8.99255H16.6779C19.7523 8.99255 22.2678 11.5469 22.2678 14.6261ZM7.34968 15.7808H3.89093C3.26204 15.7808 2.77292 15.256 2.80787 14.6261C2.80787 13.9962 3.33194 13.5064 3.9608 13.5414H7.3846C8.01346 13.5414 8.5026 14.0663 8.5026 14.6611V14.6961C8.46765 15.3259 7.97857 15.8159 7.34968 15.7808ZM1.34052 18.0203H7.3846C8.01346 18.0203 8.5026 18.5102 8.5375 19.1401V19.175C8.5375 19.8049 8.01346 20.2948 7.3846 20.2948H1.34052H1.30558C0.676718 20.2948 0.187599 19.7698 0.187599 19.1401C0.222536 18.5102 0.746592 18.0203 1.34052 18.0203ZM3.82105 22.4992H16.6429C21.01 22.4992 24.5037 19.0001 24.5037 14.6261C24.5037 13.7163 24.329 12.8416 24.0495 12.0017C23.8399 11.4069 24.1543 10.7771 24.7483 10.5671C25.3423 10.3572 25.9711 10.6721 26.1807 11.267C26.565 12.3167 26.7746 13.4714 26.7746 14.6261C26.7746 20.2247 22.2328 24.7386 16.6779 24.7386H3.82105H3.7861C3.15724 24.7386 2.66813 24.2138 2.66813 23.5839C2.70306 22.9891 3.22711 22.4992 3.82105 22.4992ZM9.79528 27.013H16.6779C18.8439 27.013 20.8703 26.4532 22.6172 25.5085C22.7918 25.4034 22.9665 25.3685 23.1412 25.3685C23.7701 25.3685 24.2592 25.8583 24.2941 26.4882C24.2941 26.9081 24.0845 27.293 23.7002 27.5029C21.6388 28.6578 19.2283 29.2874 16.6779 29.2874H9.7603C9.13146 29.2874 8.6423 28.7627 8.6423 28.1328C8.67727 27.5029 9.16642 27.013 9.79528 27.013Z" fill="#B7B7B8"/>
</g>
</g>
<defs>
<clipPath id="clip0_2239_2116">
<rect width="141.721" height="29.331" fill="white"/>
</clipPath>
</defs>
</svg>
