<svg width="95" height="30" viewBox="0 0 95 30" fill="none" xmlns="http://www.w3.org/2000/svg">
<g clip-path="url(#clip0_2239_2096)">
<path fill-rule="evenodd" clip-rule="evenodd" d="M51.2119 4.11432H55.8127V0H51.2119V4.11432ZM11.4731 1.13831C11.4731 0.99143 11.4731 0.917962 11.4854 0.856954C11.535 0.615889 11.7232 0.427464 11.9643 0.378104C12.0254 0.365624 12.0987 0.365621 12.2456 0.365621C13.8125 0.365621 14.5957 0.365624 15.2467 0.498877C17.8181 1.02541 19.828 3.03505 20.3544 5.60663C20.4877 6.25742 20.4877 7.0408 20.4877 8.60759V10.1529C20.4877 11.7197 20.4877 12.5031 20.3544 13.1539C19.828 15.7255 17.8181 17.7351 15.2467 18.2617C14.5957 18.3948 13.8125 18.3948 12.2456 18.3948C12.0987 18.3948 12.0254 18.3948 11.9643 18.3825C11.7232 18.3329 11.535 18.1447 11.4854 17.9036C11.4731 17.8425 11.4731 17.7692 11.4731 17.6223V1.13831ZM0 14.7536C0 13.1869 0 12.4035 0.133251 11.7527C0.65978 9.18111 2.66942 7.17147 5.24103 6.64491C5.89183 6.51166 6.6751 6.51166 8.24202 6.51166C8.38896 6.51166 8.46229 6.51166 8.52336 6.52417C8.76442 6.57353 8.95269 6.76193 9.00229 7.00302C9.01455 7.06403 9.01455 7.13747 9.01455 7.28432V20.8064C9.01455 22.3731 9.01455 23.1566 8.88149 23.8072C8.35482 26.3789 6.34524 28.3886 3.77363 28.915C3.12283 29.0483 2.33945 29.0483 0.772688 29.0483C0.625809 29.0483 0.55237 29.0483 0.491357 29.0358C0.250264 28.9865 0.0618657 28.7982 0.012506 28.5571C0 28.4961 0 28.4225 0 28.2758V14.7536ZM36.012 29.1566H31.3793V6.75889H36.012V9.37887C36.9387 7.78131 38.8877 6.37548 41.348 6.37548C45.4376 6.37548 48.6327 9.41081 48.6327 14.9383V15.1939C48.6327 20.7215 45.5016 23.8207 41.348 23.8207C38.76 23.8207 36.8747 22.5428 36.012 20.9132V29.1566ZM35.8523 15.2259C35.8523 18.5807 37.4499 20.2103 39.9741 20.2103C42.5301 20.2103 43.936 18.485 43.936 15.2259V14.9703C43.936 11.5835 42.2746 9.92204 39.9421 9.92204C37.5139 9.92204 35.8523 11.6154 35.8523 14.9703V15.2259ZM51.2119 23.4691H55.8127V6.75881H51.2119V23.4691ZM64.0641 29.1566H59.4313V6.75889H64.0641V9.37887C64.9908 7.78131 66.9398 6.37548 69.4001 6.37548C73.4896 6.37548 76.6848 9.41081 76.6848 14.9383V15.1939C76.6848 20.7215 73.5536 23.8207 69.4001 23.8207C66.8118 23.8207 64.9268 22.5428 64.0641 20.9132V29.1566ZM63.9044 15.2259C63.9044 18.5807 65.502 20.2103 68.0259 20.2103C70.5822 20.2103 71.988 18.485 71.988 15.2259V14.9703C71.988 11.5835 70.3265 9.92204 67.9942 9.92204C65.566 9.92204 63.9044 11.6154 63.9044 14.9703V15.2259ZM86.8362 23.8207C91.4053 23.8207 94.281 21.8079 94.8239 18.1973H90.4466C90.1591 19.6031 89.1047 20.5298 86.9639 20.5298C84.44 20.5298 82.9381 18.9322 82.8104 16.1525H94.8559V14.8745C94.8559 8.89959 91.0218 6.37548 86.7085 6.37548C81.852 6.37548 78.1136 9.79423 78.1136 15.0662V15.3218C78.1136 20.6575 81.788 23.8207 86.8362 23.8207ZM82.8744 13.3088C83.2258 10.9445 84.6317 9.57057 86.7085 9.57057C88.913 9.57057 90.1911 10.7847 90.3509 13.3088H82.8744Z" fill="#B7B7B8"/>
</g>
<defs>
<clipPath id="clip0_2239_2096">
<rect width="94.9327" height="29.3331" fill="white"/>
</clipPath>
</defs>
</svg>
