<svg width="1143" height="400" viewBox="0 0 1143 400" fill="none" xmlns="http://www.w3.org/2000/svg">
<g opacity="0.2" clip-path="url(#clip0_136_45)" filter="url(#filter0_f_136_45)">
<path d="M136.703 152.679V316.313C136.703 320.82 133.025 324.492 128.511 324.492H100.427C95.914 324.492 92.2363 320.82 92.2363 316.313V152.624C92.2363 148.061 95.914 144.389 100.483 144.445H128.511C133.025 144.5 136.703 148.173 136.703 152.679Z" fill="#FF8800"/>
<path d="M353.682 244.984V316.369C353.682 320.875 350.06 324.547 345.491 324.547H317.407C312.893 324.547 309.216 320.875 309.216 316.369V294.28L353.738 245.04L353.682 244.984Z" fill="#005CAF"/>
<path d="M745.746 145.001H717.996C713.483 145.001 709.805 148.673 709.805 153.18V157.52C709.805 161.136 705.292 163.084 702.784 160.469C690.971 148.061 672.137 140.661 652.523 140.661C599.977 140.327 558.798 172.709 558.798 234.635C558.798 296.561 598.193 330.389 651.408 330.056C667.846 329.722 689.745 322.767 702.728 308.635C705.18 305.908 709.749 307.8 709.749 311.472V316.424C709.749 320.931 713.427 324.603 717.941 324.603H745.69C750.204 324.603 753.881 320.931 753.881 316.424V153.18C753.881 148.673 750.204 145.001 745.69 145.001H745.746ZM661.995 288.994C629.955 291.609 603.32 270.856 603.32 234.635C603.32 198.414 629.899 178.05 661.884 180.554C726.577 185.729 726.689 283.653 661.995 288.994Z" fill="#005CAF"/>
<path d="M996.772 142.442C975.263 142.442 955.983 148.618 940.493 169.482C938.709 171.875 935.032 171.596 933.583 168.926C922.55 148.951 902.936 141.663 883.322 141.663C869.614 141.663 853.622 145.836 842.867 156.852C840.36 159.467 835.902 157.575 835.902 153.959V152.79C835.902 148.284 832.224 144.612 827.711 144.612H799.571C795.058 144.612 791.38 148.284 791.38 152.79V316.313C791.38 320.82 795.058 324.492 799.571 324.492H827.655C832.169 324.492 835.846 320.82 835.846 316.313V228.348C835.846 204.701 850.055 183.225 874.127 183.225C898.199 183.225 910.96 204.701 910.96 228.348V316.313C910.96 320.82 914.637 324.492 919.151 324.492H947.235C951.748 324.492 955.426 320.82 955.426 316.313V228.348C955.426 204.701 970.36 183.948 994.432 183.948C1018.5 183.948 1028.37 203.978 1028.37 227.625V316.313C1028.37 320.82 1032.04 324.492 1036.56 324.492H1064.64C1069.16 324.492 1072.83 320.82 1072.83 316.313V227.625C1072.83 173.711 1047.65 142.442 996.605 142.442H996.772Z" fill="#005CAF"/>
<path d="M150.628 70H78.1895C71.1128 70 67.3794 78.4015 72.1158 83.6871L108.335 123.803C111.567 127.419 117.251 127.419 120.483 123.803L156.702 83.6871C161.494 78.4015 157.705 70 150.628 70Z" fill="#FF8800"/>
<path d="M353.682 230.24V245.04L309.16 294.28V230.574C309.16 203.811 294.783 183.281 267.368 182.557C241.011 181.834 219.781 204.201 219.781 230.518V316.369C219.781 320.875 216.159 324.547 211.59 324.547H183.896C179.327 324.547 175.705 320.875 175.705 316.369V152.846C175.705 148.284 179.327 144.667 183.896 144.667H211.646C216.215 144.667 219.837 148.284 219.837 152.846V158.633C219.837 162.138 224.016 163.974 226.635 161.637C241.847 148.562 257.784 142.108 277.454 142.108C319.747 142.108 353.626 173.766 353.626 230.24H353.682Z" fill="#FF8800"/>
<path d="M553.112 314.254L478.277 232.187C476.939 230.629 476.828 228.292 478.277 226.734L542.246 155.183C545.756 151.288 542.915 144.945 537.621 144.945H499.674C497.278 144.945 494.938 146.003 493.433 147.894L442.615 208.429C440.107 211.378 435.315 209.598 435.315 205.814V154.46L390.849 203.7V316.313C390.849 320.82 394.471 324.492 399.04 324.492H427.068C431.637 324.492 435.259 320.82 435.259 316.313V254.276C435.259 250.492 439.996 248.712 442.503 251.605L503.24 321.654C504.856 323.435 507.029 324.492 509.425 324.492H548.542C553.836 324.492 556.678 318.149 553.112 314.199V314.254Z" fill="#005CAF"/>
<path d="M435.313 78.1789C435.313 73.6165 431.691 70 427.122 70H399.093C394.524 70 390.902 73.6165 390.902 78.1789V203.756L435.369 154.515V78.1789H435.313Z" fill="#FF8800"/>
</g>
<defs>
<filter id="filter0_f_136_45" x="0" y="0" width="1143" height="400" filterUnits="userSpaceOnUse" color-interpolation-filters="sRGB">
<feFlood flood-opacity="0" result="BackgroundImageFix"/>
<feBlend mode="normal" in="SourceGraphic" in2="BackgroundImageFix" result="shape"/>
<feGaussianBlur stdDeviation="35" result="effect1_foregroundBlur_136_45"/>
</filter>
<clipPath id="clip0_136_45">
<rect width="1003" height="260" fill="white" transform="translate(70 70)"/>
</clipPath>
</defs>
</svg>
