<svg width="180" height="146" viewBox="0 0 180 146" fill="none" xmlns="http://www.w3.org/2000/svg">
<path d="M59.7066 50.1779C59.7066 49.807 59.7066 44.4116 59.7066 44.4116H56.5017C56.5017 44.4116 56.5017 49.7233 56.5017 49.891C56.5017 50.8719 55.5929 51.5298 54.0622 51.5298C52.4597 51.5298 51.5867 50.8957 51.5867 49.8788C51.5867 49.7114 51.5867 44.4116 51.5867 44.4116H48.3457C48.3457 44.4116 48.3457 49.4481 48.3457 49.8788C48.3457 52.7261 50.6777 53.9345 53.9306 53.9345C57.4107 53.9345 59.7066 52.7142 59.7066 50.1779Z" fill="white"/>
<path d="M70.5002 53.8028V51.3026H64.7839V44.4116H61.543V53.8028H70.5002Z" fill="white"/>
<path d="M80.1313 46.7685V44.4116H68.9258V46.7685H72.8841V53.8028H76.1608V46.7685H80.1313Z" fill="white"/>
<path d="M84.4402 53.8028V44.4116H81.1516V53.8028H84.4402Z" fill="white"/>
<path d="M99.5283 53.8028V44.4116H95.4742L92.915 50.0465L90.4755 44.4116H86.2898V53.8028H89.3393V48.7305L91.5397 53.8028H94.2665L96.4907 48.7305V53.8028H99.5283Z" fill="white"/>
<path d="M104.608 52.0681H109.678L110.504 53.8028H113.96L109.224 44.4116H105.361L100.35 53.8028H103.735L104.608 52.0681ZM108.662 49.9625H105.66L106.844 47.7015L107.203 46.8403L107.538 47.6896L108.662 49.9625Z" fill="white"/>
<path d="M124.125 46.7685V44.4116H112.92V46.7685H116.878V53.8028H120.155V46.7685H124.125Z" fill="white"/>
<path d="M135.022 53.8028V51.47H128.291V50.2497H134.747V47.9648H128.291V46.7564H134.939V44.4116H125.134V53.8028H135.022Z" fill="white"/>
<path d="M72.7865 58.7949H69.6891C69.6891 58.7949 67.668 64.7048 67.668 64.8483C67.668 64.7048 65.7785 58.7949 65.7785 58.7949H62.418C62.418 58.7949 60.5405 64.7048 60.5405 64.8483C60.5405 64.7048 58.5074 58.7949 58.5074 58.7949H55.0273L58.5434 68.1861H62.0473C62.0473 68.1861 63.9369 62.5753 63.9488 62.4199C63.9607 62.5753 65.8383 68.1861 65.8383 68.1861H69.3541L72.7865 58.7949Z" fill="white"/>
<path d="M77.0242 68.1861V58.7949H73.7355V68.1861H77.0242Z" fill="white"/>
<path d="M89.8163 68.1861V58.7949H86.7549V63.9032L82.2464 58.7949H78.8738V68.1861H81.9593V62.9581L86.6113 68.1861H89.8163Z" fill="white"/>
<path d="M102.628 68.1861V58.7949H99.5663V63.9032L95.0577 58.7949H91.6854V68.1861H94.7707V62.9581L99.4227 68.1861H102.628Z" fill="white"/>
<path d="M114.387 68.1861V65.8533H107.654V64.633H114.112V62.3481H107.654V61.1397H114.303V58.7949H104.497V68.1861H114.387Z" fill="white"/>
<path d="M127.029 61.6541C127.029 60.8049 126.825 60.1946 126.394 59.7519C125.833 59.1538 124.864 58.7949 123.381 58.7949H115.907V68.1861H119.1V64.8724H122.006L124.339 68.1861H127.903L125.069 64.3578C125.701 64.2621 126.217 63.8794 126.55 63.4248C126.849 63.006 127.029 62.3838 127.029 61.6541ZM123.921 61.9531C123.921 62.1089 123.896 62.3001 123.811 62.4437C123.692 62.6829 123.381 62.7788 122.867 62.7788H119.112V61.0679H122.807C123.31 61.0679 123.646 61.1516 123.811 61.4628C123.896 61.5823 123.921 61.7738 123.921 61.9531Z" fill="white"/>
<path d="M61.0545 77.4255C61.0545 77.2719 61.0545 72.8364 61.0545 72.8364H59.9349C59.9349 72.8364 59.9349 77.2537 59.9349 77.3532C59.9349 78.419 58.9325 79.0244 57.4876 79.0244C55.781 79.0244 54.9411 78.374 54.9411 77.3442C54.9411 77.2447 54.9411 72.8364 54.9411 72.8364H53.8124C53.8124 72.8364 53.8124 77.1364 53.8124 77.3079C53.8124 79.1869 55.2753 80.0179 57.4426 80.0179C59.6819 80.0179 61.0545 79.1327 61.0545 77.4255Z" fill="white"/>
<path d="M69.0882 79.9276V78.8889H64.2029V72.8364H63.0742V79.9276H69.0882Z" fill="white"/>
<path d="M75.502 73.8662V72.8364H67.9707V73.8662H71.1674V79.9276H72.3053V73.8662H75.502Z" fill="white"/>
<path d="M83.5285 74.8417C83.5285 74.3358 83.42 73.9655 83.2306 73.6674C82.8963 73.1705 82.2551 72.8364 81.1897 72.8364H76.6024V79.9276H77.7131V76.9376H80.9458L82.9233 79.9276H84.2237L82.0837 76.7478C82.6254 76.6847 83.0498 76.3774 83.2756 75.9801C83.4383 75.709 83.5285 75.3116 83.5285 74.8417ZM82.4086 74.932C82.4086 75.1308 82.3636 75.3749 82.2824 75.5374C82.1379 75.7993 81.8037 75.9348 81.262 75.9438H77.7221C77.7221 75.9258 77.7221 73.8482 77.7221 73.8482H81.0543C81.7314 73.8482 82.0927 74.0107 82.2824 74.3178C82.3636 74.4624 82.4086 74.7062 82.4086 74.932Z" fill="white"/>
<path d="M86.7417 78.1752H91.1576L92.0605 79.9276H93.2706L89.6765 72.8364H88.3491L84.6377 79.9276H85.8206L86.7417 78.1752ZM90.6879 77.1724H87.2294L88.6651 74.4534L88.9813 73.7939L89.2973 74.4534L90.6879 77.1724Z" fill="white"/>
<path d="M104.724 79.2502C105.004 78.9249 105.13 78.4642 105.13 77.9674C105.13 77.4977 104.995 77.0278 104.715 76.7388C104.435 76.4679 103.983 76.2421 103.487 76.1969C103.776 76.1516 104.001 75.971 104.155 75.7812C104.399 75.5012 104.543 75.0495 104.543 74.5979C104.543 74.119 104.399 73.6854 104.092 73.3873C103.758 73.0532 103.189 72.8364 102.394 72.8364H97.626V79.9276H102.746C103.703 79.9276 104.372 79.6838 104.724 79.2502ZM103.378 74.8237C103.378 75.1398 103.279 75.4199 103.107 75.5824C102.936 75.7722 102.647 75.8535 102.34 75.8535H98.7276V73.8119H102.132C102.548 73.8119 102.863 73.8932 103.08 74.092C103.27 74.2726 103.378 74.5346 103.378 74.8237ZM103.739 78.5635C103.514 78.8166 103.125 78.9431 102.557 78.9431H98.7276V76.8383H102.584C103.107 76.8383 103.469 76.9466 103.685 77.1544C103.884 77.3442 103.965 77.588 103.965 77.8681C103.965 78.1571 103.902 78.401 103.739 78.5635Z" fill="white"/>
<path d="M113.328 79.9276V78.8889H107.819V76.8653H113.111V75.8355H107.819V73.8662H113.264V72.8364H106.718V79.9276H113.328Z" fill="white"/>
<path d="M122.149 77.8318C122.149 76.6755 121.383 76.0793 119.495 75.8625C119.178 75.8175 118.492 75.7452 118.122 75.7C116.37 75.4921 115.837 75.2573 115.837 74.6522C115.837 74.065 116.424 73.7307 118.194 73.7307C119.566 73.7307 120.271 74.0017 120.624 74.4894C120.724 74.6249 120.777 74.7877 120.804 74.914H122.013C121.979 74.7062 121.896 74.4171 121.77 74.1823C121.283 73.3423 120.281 72.7369 118.194 72.7369C115.702 72.7279 114.672 73.6314 114.672 74.7514C114.672 75.8715 115.476 76.4407 117.562 76.6847C117.923 76.7297 118.564 76.802 118.88 76.8383C120.497 77.0368 121.003 77.2809 121.003 77.9583C121.003 78.5818 120.424 79.0334 118.573 79.0334C117.056 79.0334 116.243 78.7623 115.918 78.2384C115.819 78.0939 115.756 77.8681 115.747 77.7145H114.555C114.582 78.0396 114.672 78.392 114.835 78.672C115.304 79.5303 116.406 80.0272 118.537 80.0272C121.084 80.0272 122.149 79.2049 122.149 77.8318Z" fill="white"/>
<path d="M130.247 73.8662V72.8364H122.716V73.8662H125.912V79.9276H127.05V73.8662H130.247Z" fill="white"/>
<path d="M50.616 86.0912C50.616 85.3685 50.4715 84.8806 50.2275 84.5102C49.8846 83.9771 49.2161 83.6973 48.0512 83.6973H43.5724V90.7885H44.692V88.4759C44.692 88.4759 47.8527 88.4759 48.0062 88.4759C49.0989 88.4668 49.8483 88.214 50.2458 87.6359C50.4985 87.2835 50.616 86.7776 50.616 86.0912ZM49.4781 86.0912C49.4781 86.4523 49.4419 86.7234 49.3246 86.9042C49.1169 87.2383 48.6924 87.4461 47.8165 87.4461C47.7353 87.4461 44.692 87.4461 44.692 87.4461V84.7091H47.8527C48.6744 84.7091 49.0989 84.8986 49.3246 85.269C49.4329 85.4315 49.4781 85.7298 49.4781 86.0912Z" fill="white"/>
<path d="M58.7898 90.7885V89.7497H53.2813V87.7261H58.5731V86.6964H53.2813V84.7271H58.7266V83.6973H52.1797V90.7885H58.7898Z" fill="white"/>
<path d="M67.4036 85.7026C67.4036 85.1967 67.2954 84.8263 67.1057 84.5283C66.7715 84.0314 66.1305 83.6973 65.0649 83.6973H60.4775V90.7885H61.5882V87.7984H64.8211L66.7987 90.7885H68.0991L65.9588 87.6086C66.5007 87.5456 66.9252 87.2383 67.1509 86.8409C67.3134 86.5698 67.4036 86.1725 67.4036 85.7026ZM66.284 85.7929C66.284 85.9917 66.2388 86.2357 66.1575 86.3983C66.013 86.6601 65.6788 86.7956 65.1371 86.8046H61.5972C61.5972 86.7866 61.5972 84.7091 61.5972 84.7091H64.9294C65.6066 84.7091 65.9678 84.8716 66.1575 85.1787C66.2388 85.3232 66.284 85.567 66.284 85.7929Z" fill="white"/>
<path d="M75.7756 84.7271V83.6973H69.4725V90.7885H70.5921V87.7714H75.5409V86.7144H70.5921V84.7271H75.7756Z" fill="white"/>
<path d="M80.9155 83.5708C79.4074 83.5708 78.369 83.9412 77.6283 84.7181C77.0053 85.3233 76.7344 86.1635 76.7344 87.2203C76.7344 88.3766 77.0866 89.2439 77.7368 89.831C78.4322 90.5267 79.4976 90.8878 80.9155 90.8878C82.3783 90.8878 83.516 90.5267 84.1934 89.7948C84.7804 89.1986 85.0874 88.3496 85.0874 87.2113C85.0874 86.1093 84.8254 85.269 84.2024 84.6729C83.489 83.9322 82.4233 83.5708 80.9155 83.5708ZM80.9155 89.8763C79.9221 89.8763 79.2176 89.6595 78.6849 89.2259C78.1432 88.7832 77.8813 88.1056 77.8813 87.2383C77.8813 86.4253 78.107 85.7479 78.5405 85.3413C79.0372 84.8717 79.7956 84.5916 80.9065 84.5916C82.0531 84.5916 82.7666 84.8627 83.2993 85.3323C83.751 85.7299 83.9495 86.4343 83.9495 87.2293C83.9495 88.0333 83.742 88.72 83.2813 89.1353C82.7486 89.6322 81.9991 89.8763 80.9155 89.8763Z" fill="white"/>
<path d="M93.5599 85.7026C93.5599 85.1967 93.4514 84.8263 93.2619 84.5283C92.9277 84.0314 92.2865 83.6973 91.2211 83.6973H86.6338V90.7885H87.7444V87.7984H90.9771L92.9549 90.7885H94.2551L92.115 87.6086C92.6567 87.5456 93.0812 87.2383 93.3069 86.8409C93.4697 86.5698 93.5599 86.1725 93.5599 85.7026ZM92.44 85.7929C92.44 85.9917 92.395 86.2357 92.3138 86.3983C92.1693 86.6601 91.8351 86.7956 91.2934 86.8046H87.7534C87.7534 86.7866 87.7534 84.7091 87.7534 84.7091H91.0856C91.7628 84.7091 92.124 84.8716 92.3138 85.1787C92.395 85.3232 92.44 85.567 92.44 85.7929Z" fill="white"/>
<path d="M104.36 90.7885V83.6973H102.897L99.9805 89.5329L97.1178 83.6973H95.6279V90.7885H96.7026V85.3322L99.3753 90.7885H100.549L103.285 85.3322V90.7885H104.36Z" fill="white"/>
<path d="M107.532 89.036H111.948L112.85 90.7885H114.061L110.466 83.6973H109.139L105.428 90.7885H106.611L107.532 89.036ZM111.478 88.0332H108.019L109.455 85.3142L109.771 84.6548L110.087 85.3142L111.478 88.0332Z" fill="white"/>
<path d="M122.196 90.7885V83.6973H121.121V89.2076L116.426 83.6973H115.153V90.7885H116.245V85.2419L120.977 90.7885H122.196Z" fill="white"/>
<path d="M131.938 88.1418H130.763C130.727 88.4669 130.6 88.7922 130.374 89.0361C129.887 89.6052 129.111 89.849 127.92 89.849C126.917 89.849 125.842 89.569 125.327 88.8373C125.057 88.4942 124.884 87.9883 124.884 87.2293C124.884 86.5519 125.003 86.046 125.263 85.7026C125.696 85.0072 126.608 84.6458 127.893 84.6458C129.138 84.6458 129.924 84.9889 130.34 85.4678C130.573 85.7206 130.71 86.019 130.753 86.3711H131.928C131.892 85.9737 131.765 85.5038 131.495 85.1065C130.916 84.2482 129.851 83.5708 127.9 83.5708C126.042 83.5708 124.93 84.167 124.315 85.0612C123.918 85.5761 123.719 86.2988 123.719 87.2203C123.719 88.2501 123.964 89.0091 124.388 89.542C125.003 90.3822 126.185 90.8878 127.973 90.8878C129.807 90.8878 130.899 90.3369 131.442 89.4607C131.748 89.0361 131.901 88.5302 131.938 88.1418Z" fill="white"/>
<path d="M140.019 90.7885V89.7497H134.509V87.7261H139.802V86.6964H134.509V84.7271H139.955V83.6973H133.407V90.7885H140.019Z" fill="white"/>
<path d="M57.4337 97.833L58.7842 101.991H63.1546L59.619 104.561L60.9695 108.719L57.4337 106.149L53.8979 108.719L55.2487 104.561L51.7129 101.991H56.0832L57.4337 97.833Z" fill="white"/>
<path d="M73.025 97.8335L74.403 101.991H78.8626L75.2548 104.561L76.6328 108.719L73.025 106.149L69.4173 108.719L70.7952 104.561L67.1874 101.991H71.6471L73.025 97.8335Z" fill="white"/>
<path d="M88.4929 97.8335L89.8711 101.991H94.3305L90.7227 104.561L92.1009 108.719L88.4929 106.149L84.8851 108.719L86.2631 104.561L82.6553 101.991H87.1149L88.4929 97.8335Z" fill="white"/>
<path d="M103.961 97.8335L105.339 101.991H109.798L106.191 104.561L107.568 108.719L103.961 106.149L100.353 108.719L101.731 104.561L98.1231 101.991H102.583L103.961 97.8335Z" fill="white"/>
<path d="M119.551 97.8335L120.901 101.991H125.272L121.735 104.561L123.085 108.719L119.551 106.149L116.015 108.719L117.366 104.561L113.83 101.991H118.2L119.551 97.8335Z" fill="white"/>
<path d="M65.0089 27.6821L66.0301 30.826H69.3345L66.6613 32.769L67.6824 35.9126L65.0089 33.9699L62.3357 35.9126L63.3568 32.769L60.6836 30.826H63.9881L65.0089 27.6821Z" fill="white"/>
<path d="M76.7975 27.6777L77.8396 30.8216H81.2111L78.4834 32.7646L79.5252 35.9082L76.7975 33.9652L74.0695 35.9082L75.1116 32.7646L72.3836 30.8216H75.7554L76.7975 27.6777Z" fill="white"/>
<path d="M88.4921 27.6777L89.534 30.8216H92.9058L90.1781 32.7646L91.2199 35.9082L88.4921 33.9652L85.7642 35.9082L86.8062 32.7646L84.0782 30.8216H87.4501L88.4921 27.6777Z" fill="white"/>
<path d="M100.188 27.6777L101.23 30.8216H104.602L101.874 32.7646L102.916 35.9082L100.188 33.9652L97.4605 35.9082L98.5026 32.7646L95.7746 30.8216H99.1464L100.188 27.6777Z" fill="white"/>
<path d="M111.975 27.6777L112.996 30.8216H116.3L113.627 32.7646L114.648 35.9082L111.975 33.9652L109.302 35.9082L110.323 32.7646L107.649 30.8216H110.954L111.975 27.6777Z" fill="white"/>
<path fill-rule="evenodd" clip-rule="evenodd" d="M17.9426 84.2675C13.4363 56.063 26.588 28.158 52.9169 16.1748L53.1599 16.7092C27.0959 28.5717 14.0529 56.2036 18.522 84.1748C23.4664 115.12 48.4217 133.679 78.9816 134.574L78.9643 135.161C48.1663 134.259 22.9379 115.532 17.9426 84.2675Z" fill="white"/>
<path d="M47.2084 23.3729C42.3428 23.4838 36.6482 26.2286 33.2881 30.2154C35.9827 32.7186 40.3183 31.7932 43.4384 31.2812C47.8914 30.5507 52.6269 29.1355 56.8289 27.1321C55.1012 23.4529 50.447 23.2991 47.2084 23.3729Z" fill="white"/>
<path d="M43.3817 17.3679C40.4997 21.8589 37.0651 26.3224 33.3275 30.2529C30.2003 27.3164 32.0879 22.4295 33.3642 19.3905C35.6762 13.8839 41.2195 9.13525 47.0148 6.70557C48.6053 10.3256 45.1505 14.6115 43.3817 17.3679Z" fill="white"/>
<path d="M33.128 35.9663C28.5721 37.5864 24.6571 42.1469 22.6914 46.7255C25.9674 48.2492 29.6917 46.0488 32.4163 44.5837C36.1574 42.5718 39.9741 39.7958 42.9772 36.5833C40.2638 33.7193 36.1437 34.8941 33.128 35.9663Z" fill="white"/>
<path d="M27.6052 31.4789C26.6079 36.6011 24.9359 41.9101 22.7399 46.7491C18.9068 44.9406 19.0528 39.761 19.217 36.4648C19.4972 30.8387 22.6436 24.423 27.0241 20.3457C29.7059 23.2219 28.2406 28.2161 27.6052 31.4789Z" fill="white"/>
<path d="M24.3618 52.2254C20.5655 55.2214 18.2644 60.7735 17.7314 65.7314C21.3227 66.1439 24.1932 62.8744 26.3291 60.6314C29.2371 57.5773 31.9899 53.7468 33.7381 49.7393C30.3147 47.871 26.8346 50.2739 24.3618 52.2254Z" fill="white"/>
<path d="M17.7847 49.6961C18.4616 54.8686 18.4631 60.4646 17.7859 65.7381C13.6094 65.2249 12.2242 60.2083 11.4059 57.0613C9.99313 51.6291 10.9403 44.6124 13.6924 39.3315C17.1316 41.2361 17.3522 46.3899 17.7847 49.6961Z" fill="white"/>
<path d="M21.3824 69.9727C18.3784 74.3748 17.322 81.2736 18.6729 86.8187C22.6427 85.8784 24.6105 81.3824 26.1906 78.2071C28.2905 73.987 30.0655 69.0636 30.7008 64.2332C26.3952 63.3368 23.3612 67.0727 21.3824 69.9727Z" fill="white"/>
<path d="M13.4968 69.5276C15.8373 74.9484 17.6638 80.9147 18.7327 86.8053C14.1799 87.7837 10.9031 83.0012 8.99951 79.8301C5.61041 74.1853 4.62308 66.3599 5.8646 59.6069C10.0316 60.4428 12.0707 66.2256 13.4968 69.5276Z" fill="white"/>
<path d="M23.4844 89.1261C21.8715 94.4663 22.9926 101.726 26.2584 106.747C29.8472 104.409 30.3439 99.2646 30.8525 95.5759C31.5231 90.7083 31.8389 85.316 31.0058 80.2686C26.4155 80.8547 24.5618 85.5586 23.4844 89.1261Z" fill="white"/>
<path d="M15.5076 91.4122C19.5347 96.0348 23.2496 101.305 26.3132 106.712C22.1581 109.307 17.2823 105.762 14.3252 103.253C9.07918 98.8027 5.6728 91.2387 4.86523 84.1076C9.23096 83.5207 13.0783 88.6234 15.5076 91.4122Z" fill="white"/>
<path d="M31.9478 107.302C32.2939 113.518 36.3393 120.041 41.7257 123.753C44.3269 120.191 42.6965 114.732 41.8091 110.921C40.6145 105.791 38.9612 100.449 36.5042 95.709C32.2197 97.9739 31.7199 103.209 31.9478 107.302Z" fill="white"/>
<path d="M24.703 112.553C30.5386 115.797 36.3575 119.624 41.7677 123.698C38.5277 127.966 32.0516 126.264 28.0371 124.892C20.9626 122.474 14.6556 116.101 11.3613 109.021C15.5381 106.869 21.2557 110.636 24.703 112.553Z" fill="white"/>
<path d="M48.5684 122.488C52.0709 128.882 60.0524 133.053 67.5686 134.058C68.3777 129.409 63.3496 124.806 60.6097 121.795C56.7088 117.509 52.644 113.06 48.0866 109.354C44.6722 113.319 46.4773 118.67 48.5684 122.488Z" fill="white"/>
<path d="M43.5661 130.592C51.5277 131.42 59.6243 132.612 67.5812 133.986C66.8216 139.852 57.5173 140.798 53.2934 141.145C44.6327 141.855 34.9983 138.372 28.2899 132.509C31.6219 128.587 39.3251 130.151 43.5661 130.592Z" fill="white"/>
<path d="M58.9011 11.2517C53.5558 12.7772 47.2991 15.6711 44.2083 21.0133C49.8187 20.4015 55.3327 18.4045 60.7252 16.8829C66.7654 15.1784 73.1255 13.9036 78.9735 11.5508C72.569 8.98751 65.0192 9.50557 58.9011 11.2517Z" fill="white"/>
<path fill-rule="evenodd" clip-rule="evenodd" d="M162.312 84.1748C166.78 56.2036 153.737 28.5722 127.674 16.7092L127.917 16.1748C154.246 28.1582 167.398 56.063 162.891 84.2675C157.897 115.532 132.668 134.259 101.87 135.161L101.853 134.574C132.412 133.679 157.366 115.12 162.312 84.1748Z" fill="white"/>
<path d="M133.626 23.3729C138.491 23.4838 144.185 26.2286 147.547 30.2154C144.852 32.7186 140.515 31.7932 137.396 31.2812C132.943 30.5507 128.207 29.1355 124.006 27.1321C125.733 23.4529 130.386 23.2991 133.626 23.3729Z" fill="white"/>
<path d="M137.452 17.3679C140.334 21.8589 143.769 26.3224 147.505 30.2529C150.633 27.3164 148.746 22.4295 147.469 19.3905C145.158 13.8839 139.614 9.13525 133.818 6.70557C132.227 10.3256 135.684 14.6115 137.452 17.3679Z" fill="white"/>
<path d="M147.707 35.9663C152.263 37.5864 156.177 42.1469 158.142 46.7255C154.866 48.2492 151.142 46.0488 148.418 44.5837C144.677 42.5718 140.86 39.7958 137.858 36.5833C140.571 33.7193 144.691 34.8941 147.707 35.9663Z" fill="white"/>
<path d="M153.228 31.4789C154.226 36.6011 155.897 41.9101 158.093 46.7491C161.927 44.9406 161.781 39.761 161.615 36.4648C161.336 30.8387 158.19 24.423 153.81 20.3457C151.127 23.2219 152.593 28.2161 153.228 31.4789Z" fill="white"/>
<path d="M156.471 52.2254C160.268 55.2214 162.569 60.7735 163.102 65.7314C159.512 66.1439 156.641 62.8744 154.506 60.6314C151.596 57.5773 148.843 53.7468 147.096 49.7393C150.519 47.871 154 50.2739 156.471 52.2254Z" fill="white"/>
<path d="M163.051 49.6961C162.373 54.8681 162.373 60.4646 163.049 65.7381C167.225 65.2249 168.612 60.2083 169.429 57.0613C170.842 51.6291 169.894 44.6124 167.143 39.3315C163.703 41.2361 163.482 46.3899 163.051 49.6961Z" fill="white"/>
<path d="M159.45 69.9727C162.455 74.3748 163.51 81.2736 162.16 86.8187C158.19 85.8784 156.223 81.3826 154.642 78.2071C152.542 73.987 150.767 69.0636 150.132 64.2332C154.437 63.3368 157.473 67.0727 159.45 69.9727Z" fill="white"/>
<path d="M167.337 69.5276C164.997 74.9484 163.17 80.9147 162.103 86.8053C166.654 87.7837 169.93 83.0012 171.835 79.8301C175.223 74.1853 176.211 66.3599 174.97 59.6069C170.803 60.4428 168.763 66.2256 167.337 69.5276Z" fill="white"/>
<path d="M157.349 89.1261C158.962 94.4663 157.843 101.726 154.576 106.747C150.988 104.409 150.489 99.2646 149.981 95.5759C149.312 90.7083 148.996 85.316 149.828 80.2686C154.418 80.8547 156.271 85.5586 157.349 89.1261Z" fill="white"/>
<path d="M165.325 91.4122C161.299 96.0351 157.585 101.305 154.52 106.712C158.675 109.307 163.552 105.762 166.51 103.253C171.754 98.8027 175.162 91.2387 175.969 84.1076C171.603 83.5207 167.755 88.6234 165.325 91.4122Z" fill="white"/>
<path d="M148.884 107.302C148.539 113.518 144.494 120.041 139.108 123.753C136.506 120.191 138.138 114.732 139.023 110.921C140.218 105.791 141.872 100.449 144.328 95.709C148.614 97.9739 149.113 103.209 148.884 107.302Z" fill="white"/>
<path d="M156.131 112.553C150.295 115.797 144.477 119.624 139.067 123.698C142.307 127.966 148.783 126.264 152.796 124.892C159.872 122.474 166.179 116.101 169.473 109.021C165.296 106.869 159.578 110.636 156.131 112.553Z" fill="white"/>
<path d="M132.265 122.488C128.763 128.882 120.782 133.053 113.265 134.058C112.456 129.409 117.484 124.806 120.225 121.795C124.124 117.509 128.189 113.06 132.747 109.354C136.162 113.319 134.355 118.67 132.265 122.488Z" fill="white"/>
<path d="M137.267 130.592C129.306 131.42 121.211 132.612 113.252 133.986C114.012 139.852 123.317 140.798 127.54 141.145C136.202 141.855 145.836 138.372 152.543 132.509C149.213 128.587 141.509 130.151 137.267 130.592Z" fill="white"/>
<path d="M121.933 11.2517C127.277 12.7772 133.536 15.6711 136.625 21.0133C131.016 20.4015 125.501 18.4045 120.109 16.8829C114.068 15.1784 107.708 13.9036 101.86 11.5508C108.265 8.98751 115.815 9.50557 121.933 11.2517Z" fill="white"/>
<path d="M93.8931 8.487L91.1506 2.43311L88.4596 8.37433L82.2012 4.49268L86.2227 12.9468H96.2239L100.1 4.49268L93.8931 8.487Z" fill="white"/>
<path d="M96.1594 14.2607H86.1424V15.7395H96.1594V14.2607Z" fill="white"/>
<path d="M91.8664 128.655L93.4805 133.624H98.7037L94.4781 136.695L96.092 141.665L91.8664 138.593L87.6408 141.665L89.2549 136.695L85.0293 133.624H90.2525L91.8664 128.655Z" fill="white"/>
</svg>
