<svg width="180" height="76" viewBox="0 0 180 76" fill="none" xmlns="http://www.w3.org/2000/svg">
<path d="M90.2818 25.0731C91.022 25.0627 91.6514 24.9242 91.6411 24.1625V24.0482C91.6514 23.2899 91.022 23.1514 90.2818 23.1411C89.5383 23.1514 88.9088 23.2899 88.9192 24.0482V24.1625C88.9088 24.9242 89.5383 25.0627 90.2818 25.0731Z" fill="white"/>
<path d="M63.2213 23.5427C63.2213 23.321 63.045 23.1445 62.8236 23.1445H60.6135V23.9374H62.8236C62.9343 23.9374 63.0276 23.8993 63.1038 23.8231C63.1832 23.7435 63.2213 23.6501 63.2213 23.5427Z" fill="white"/>
<path d="M75.6623 23.1343L76.2987 24.5089H75.0225L75.6623 23.1343Z" fill="white"/>
<path d="M104.057 23.1343L104.693 24.5089H103.417L104.057 23.1343Z" fill="white"/>
<path d="M58.8446 52.0788L57.9039 50.0469L56.958 52.0788H58.8446Z" fill="white"/>
<path d="M81.0442 51.4954C81.0442 52.1863 80.6505 52.7545 79.9552 52.7545H77.0205V50.2363H79.9552C80.6505 50.2363 81.0442 50.7993 81.0442 51.4954Z" fill="white"/>
<path d="M88.4781 50.0469L89.4189 52.0788H87.5322L88.4781 50.0469Z" fill="white"/>
<path d="M99.9106 50.0625C100.238 50.0625 100.498 50.3236 100.498 50.6511C100.498 50.8098 100.442 50.948 100.325 51.0657C100.212 51.1784 100.074 51.2346 99.9106 51.2346H96.6436V50.0625H99.9106Z" fill="white"/>
<path d="M110.719 51.4954C110.719 52.1863 110.325 52.7545 109.63 52.7545H106.694V50.2363H109.63C110.325 50.2363 110.719 50.7993 110.719 51.4954Z" fill="white"/>
<path d="M46.4228 38.671L43.0131 30.79H37.1631V43.9249H41.4252V36.8304L44.5006 43.9249H48.3116L51.4204 36.8304V43.9249H55.6659V30.79H49.9997L46.4228 38.671Z" fill="white"/>
<path d="M73.0611 43.9249V40.6621H63.6509V38.9554H72.6767V35.7596H63.6509V34.0696H72.9441V30.79H59.2383V43.9249H73.0611Z" fill="white"/>
<path d="M76.6567 41.599C77.9604 43.289 80.2836 44.1256 83.0749 44.1256C85.1711 44.1256 86.7076 43.6994 87.7781 43.0235C87.9622 42.9071 88.1327 42.7833 88.2898 42.6531L88.4069 43.9248H92.0004V36.1442H83.2755V38.9721H87.9389C87.9183 39.1059 87.847 39.316 87.7445 39.5162C87.6806 39.6412 87.6045 39.7623 87.5209 39.8588C87.0363 40.4277 85.7492 40.9297 84.0778 40.9297C82.3395 40.9297 81.2196 40.478 80.6179 39.7752C80.2167 39.2564 79.9827 38.5202 79.9827 37.4159C79.9827 36.2614 80.2167 35.4749 80.6681 34.9563C81.3199 34.2201 82.423 33.9021 84.0444 33.9021C85.4986 33.9021 86.5014 34.2368 86.9694 34.6551C87.2703 34.9061 87.5043 35.2575 87.5544 35.4917H91.8834C91.8773 35.3373 91.8551 35.1485 91.8179 34.9476C91.7542 34.6043 91.6466 34.2249 91.4989 33.9189C90.4627 31.8105 88.0558 30.5557 83.9609 30.5557C80.4007 30.5557 78.0105 31.6432 76.6901 33.2831C75.8209 34.4041 75.4198 35.8096 75.4198 37.3824C75.4198 39.1226 75.8878 40.6118 76.6567 41.599Z" fill="white"/>
<path d="M80.5264 37.4159C80.5264 36.3241 80.7494 35.6927 81.0765 35.3155C81.5687 34.7611 82.4666 34.4463 84.0444 34.4463C85.4475 34.4463 86.287 34.7746 86.6074 35.061L86.6144 35.0672L86.6215 35.0732C86.7317 35.1651 86.8325 35.2784 86.9087 35.3888C86.984 35.4979 87.0141 35.5737 87.0215 35.6001H82.732V39.5162H87.0985C86.9421 39.6931 86.6064 39.9139 86.0732 40.0912C85.5424 40.2678 84.8612 40.3856 84.0779 40.3856C82.4263 40.3856 81.4974 39.9576 81.0395 39.4313C80.7403 39.0385 80.5264 38.4362 80.5264 37.4159Z" fill="white"/>
<path d="M103.356 35.6294L102.11 38.0094H104.532L103.356 35.6294Z" fill="white"/>
<path fill-rule="evenodd" clip-rule="evenodd" d="M106.828 41.4987L107.982 43.9249H112.812L106.193 30.79H100.794L93.791 43.9249H98.5212L99.7413 41.4987H106.828ZM101.212 38.5538L102.867 35.3915L103.368 34.1867L103.836 35.3747L105.408 38.5538H101.212Z" fill="white"/>
<path fill-rule="evenodd" clip-rule="evenodd" d="M141.705 66.6681H141.698C141.605 66.6681 141.511 66.6676 141.418 66.6667V66.6681H39.1832C30.1616 66.6681 22.1144 62.4919 16.8654 55.9655H31.9283V54.0542H15.454C12.9964 50.4209 11.3495 46.1932 10.7735 41.6314H31.9283V39.7202H10.5966C10.5629 39.1511 10.5459 38.5775 10.5459 38.0001C10.5459 34.2165 11.278 30.6043 12.6083 27.2973H31.9283V25.3861H13.4598C15.4837 21.2579 18.4698 17.6881 22.1258 14.9701H124.647C125.925 14.0199 127.285 13.1737 128.714 12.4441C128.329 12.6407 127.949 12.8457 127.574 13.0588H25.0532C29.2224 10.6867 34.0447 9.33203 39.1831 9.33203H141.418V9.33338C141.514 9.33244 141.609 9.33203 141.705 9.33203C157.52 9.33203 170.342 22.1671 170.342 38.0001C170.342 53.833 157.52 66.6681 141.705 66.6681ZM152.353 51.4457C153.635 47.5788 154.4 42.9858 154.4 38.0001C154.4 33.3522 153.734 29.0456 152.607 25.3502C152.468 24.899 152.324 24.457 152.173 24.0245C151.921 23.3042 151.65 22.6107 151.364 21.946C150.977 21.0485 150.56 20.2037 150.118 19.4172C148.029 15.7063 145.647 13.7078 143.423 13.0349V21.946H149.271C149.766 23.0028 150.218 24.1535 150.617 25.3861H143.423V36.2799H152.46C152.48 36.8468 152.491 37.4204 152.491 38.0001C152.491 38.5798 152.48 39.1533 152.46 39.7201H143.423V50.614H150.616C150.218 51.8467 149.766 52.9973 149.271 54.0541H143.423V62.9653C145.647 62.2926 148.029 60.2939 150.118 56.5829C150.56 55.7964 150.978 54.9516 151.364 54.0541C151.72 53.2279 152.051 52.357 152.353 51.4457ZM156.196 25.3861C157.113 28.7069 157.68 32.3889 157.808 36.2799H166.847C166.582 32.3303 165.407 28.63 163.534 25.3861H156.196ZM161.145 21.946H155.073C153.971 19.0551 152.58 16.5405 150.973 14.5333C154.965 16.1145 158.456 18.6864 161.145 21.946ZM139.987 13.0346V21.946H132.045C132.432 21.0485 132.848 20.2037 133.291 19.4172C135.379 15.7057 137.763 13.7069 139.987 13.0346ZM132.436 14.5332C130.829 16.5404 129.439 19.055 128.337 21.946H122.264C124.953 18.6863 128.445 16.1143 132.436 14.5332ZM127.213 25.3861H116.217V27.2973H118.878C117.585 30.0555 116.776 33.0862 116.561 36.2799H125.6C125.73 32.3889 126.296 28.7069 127.213 25.3861ZM139.987 25.3861H130.792C129.81 28.6127 129.182 32.3036 129.04 36.2799H139.987V25.3861ZM157.808 39.7201C157.68 43.6111 157.113 47.2931 156.196 50.614H163.534C165.407 47.3701 166.582 43.6697 166.847 39.7201H157.808ZM130.792 50.614C129.81 47.3874 129.182 43.6964 129.04 39.7201H139.987V50.614H130.792ZM127.213 50.614C126.296 47.2931 125.73 43.6111 125.6 39.7201H116.561C116.827 43.6697 118.001 47.3701 119.875 50.614H127.213ZM155.073 54.0541C153.971 56.945 152.58 59.4595 150.974 61.4667C154.965 59.8855 158.456 57.3136 161.145 54.0541H155.073ZM132.045 54.0541H139.987V62.9657C137.763 62.2933 135.379 60.2945 133.291 56.5829C132.848 55.7964 132.432 54.9516 132.045 54.0541ZM128.337 54.0541L116.217 54.0542V55.9654H124.012C126.402 58.3246 129.26 60.2092 132.436 61.4669C130.829 59.4598 129.439 56.9451 128.337 54.0541ZM90.281 21.6662C88.531 21.6696 87.0991 22.1751 87.106 23.9375V24.2768C87.0991 26.0357 88.531 26.5447 90.281 26.5481C92.0276 26.5447 93.4595 26.0357 93.4526 24.2768V23.9375C93.4526 22.1786 92.031 21.6662 90.281 21.6662ZM35.9112 21.7804V26.4338H37.7236V21.7804H35.9112ZM43.2193 24.2457L41.1787 21.7804H38.685V26.4338H40.4974V23.5913L42.9945 26.4338H45.0351V21.7804H43.2193V24.2457ZM49.6316 23.2623V26.4408H47.8194V23.2623H45.6646V21.7874H51.7864V23.2623H49.6316ZM52.3952 26.4408H57.8356V25.2463H54.2074V24.6508H57.8356V23.5739H54.2074V22.9784H57.8356V21.7874H52.3952V26.4408ZM58.8005 26.4373V21.7839H63.2794C64.2375 21.7736 65.0503 22.5803 65.0364 23.5428C65.0364 23.8925 64.943 24.211 64.7563 24.495C64.573 24.7753 64.3275 24.9901 64.0231 25.132L65.0364 26.4373H63.1065L62.2315 25.3017H60.6128V26.4373H58.8005ZM70.1345 24.2457L68.0939 21.7804H65.6002V26.4338H67.4126V23.5913L69.9097 26.4338H71.9503V21.7804H70.1345V24.2457ZM74.1293 26.4408H72.0886L74.5823 21.7874H76.737L79.2307 26.4408H77.1901L76.8235 25.6444H74.4959L74.1293 26.4408ZM81.9976 26.4408V23.2623H84.1523V21.7874H78.0306V23.2623H80.1853V26.4408H81.9976ZM84.761 26.4338V21.7804H86.5734V26.4338H84.761ZM96.4893 21.7804L98.5299 24.2457V21.7804H100.346V26.4338H98.3051L95.808 23.5913V26.4338H93.9956V21.7804H96.4893ZM100.484 26.4408H102.525L102.891 25.6444H105.219L105.586 26.4408H107.626L105.133 21.7874H102.978L100.484 26.4408ZM107.768 26.4338V21.7804H109.58V24.9588H113.208V26.4338H107.768ZM40.6071 49.6428C39.7737 49.6428 38.7512 49.7657 38.7512 50.3133C38.7512 50.6153 39.5846 50.6563 40.6633 50.7074L40.6752 50.708C42.5918 50.8052 45.275 50.9413 45.27 52.6625C45.27 54.628 43.0204 55.0938 40.6071 55.0938C38.1991 55.0887 36.1999 54.7969 35.9443 52.6625H38.7512C39.0579 53.1949 39.7686 53.3331 40.6071 53.3331C41.4405 53.3331 42.4631 53.1949 42.4631 52.6625C42.4631 52.3606 41.6297 52.3145 40.5509 52.2634L40.5389 52.2628C38.6224 52.1656 35.9391 52.0295 35.9443 50.3133C35.9443 48.348 38.1939 47.877 40.6071 47.877C43.0152 47.8923 45.0143 48.1636 45.27 50.3133H42.4631C42.1562 49.7707 41.4457 49.6428 40.6071 49.6428ZM51.2161 50.2366V54.9351H48.5371V50.2366H45.3518V48.0562H54.4014V50.2366H51.2161ZM52.6221 54.9351H55.6386L56.1806 53.7579H59.6215L60.1635 54.9351H63.18L59.4937 48.0562H56.3084L52.6221 54.9351ZM67.0759 48.0459L70.0925 51.6901V48.0459H72.7767V54.9249H69.7602L66.0687 50.7228V54.9249H63.3896V48.0459H67.0759ZM74.3411 48.0562V54.9351H80.4561C82.3426 54.9607 83.7436 53.3638 83.7282 51.4956C83.7436 49.6173 82.3426 48.0306 80.4561 48.0562H74.3411ZM86.213 54.9351H83.1965L86.8828 48.0562H90.0681L93.7543 54.9351H90.7377L90.1958 53.7579H86.755L86.213 54.9351ZM93.9639 48.0511V54.93H96.6431V53.2512H99.0359L100.329 54.93H103.182L101.684 53.0004C102.134 52.7905 102.497 52.4733 102.768 52.0586C103.044 51.639 103.182 51.168 103.182 50.6511C103.203 49.2282 102.001 48.0357 100.585 48.0511H93.9639ZM104.016 54.9351V48.0562H110.13C112.017 48.0306 113.418 49.6173 113.403 51.4956C113.418 53.3638 112.017 54.9607 110.13 54.9351H104.016ZM56.209 44.4689H50.8764V39.4252L48.6662 44.4689H44.1436L41.9683 39.4511V44.4689H36.6191V30.2457H43.3696L46.4342 37.3292L49.6491 30.2457H56.209V44.4689ZM73.6043 44.4689H58.6944V30.2457H73.4874V34.6135H64.1941V35.2153H73.2199V39.4993H64.1941V40.1178H73.6043V44.4689ZM92.5435 44.4689H87.9105L87.8328 43.6244C86.6713 44.2848 85.0991 44.6697 83.0744 44.6697C80.1941 44.6697 77.6737 43.8073 76.2267 41.9327C75.3659 40.8269 74.8757 39.2104 74.8757 37.3824C74.8757 35.7169 75.3013 34.186 76.2601 32.9494L76.2632 32.9453L76.2664 32.9415C77.7228 31.1327 80.2964 30.0115 83.9603 30.0115C88.1479 30.0115 90.817 31.2998 91.9861 33.6786L91.9871 33.6804L91.9879 33.6823C92.2598 34.2459 92.4068 34.9906 92.4259 35.4699L92.4312 35.6001H92.5435V44.4689ZM100.076 42.0427L98.8555 44.4689H92.8841L100.468 30.2457H106.528L113.695 44.4689H107.637L106.485 42.0427H100.076ZM35.8422 61.9857H113.639V60.0744H35.8422V61.9857Z" fill="white"/>
<path fill-rule="evenodd" clip-rule="evenodd" d="M39.184 2.45166H141.706C161.317 2.45166 177.216 18.3672 177.216 38C177.216 57.6329 161.317 73.5484 141.706 73.5484H39.184C19.5722 73.5484 3.67383 57.6329 3.67383 38C3.67383 18.3672 19.5722 2.45166 39.184 2.45166ZM39.184 5.89189C21.4702 5.89189 7.11036 20.2672 7.11036 38C7.11036 55.7329 21.4702 70.1083 39.184 70.1083H141.706C159.419 70.1083 173.779 55.7329 173.779 38C173.779 20.2672 159.419 5.89189 141.706 5.89189H39.184Z" fill="white"/>
</svg>
