<svg width="180" height="65" viewBox="0 0 180 65" fill="none" xmlns="http://www.w3.org/2000/svg">
<path d="M17.9331 27.9826C17.8826 29.1676 17.8574 30.6678 17.8574 32.4831C17.8574 34.2984 17.8826 35.8111 17.9331 37.0213C17.9835 38.2064 18.0845 39.1518 18.2359 39.8578C18.4126 40.5637 18.6524 41.0554 18.9554 41.3328C19.2835 41.6101 19.7126 41.7488 20.2428 41.7488C20.7728 41.7488 21.1893 41.6101 21.4923 41.3328C21.8204 41.0554 22.0603 40.5637 22.2117 39.8578C22.3884 39.1518 22.5019 38.2064 22.5525 37.0213C22.603 35.8111 22.6282 34.2984 22.6282 32.4831C22.6282 30.6678 22.603 29.1676 22.5525 27.9826C22.5019 26.7724 22.3884 25.8142 22.2117 25.1084C22.0603 24.4024 21.8204 23.9107 21.4923 23.6334C21.1893 23.356 20.7728 23.2173 20.2428 23.2173C19.7126 23.2173 19.2835 23.356 18.9554 23.6334C18.6524 23.9107 18.4126 24.4024 18.2359 25.1084C18.0845 25.8142 17.9835 26.7724 17.9331 27.9826Z" fill="white"/>
<path fill-rule="evenodd" clip-rule="evenodd" d="M19.2748 4.3886C10.145 4.58373 2.88791 12.1088 3.03441 21.2287L3.21441 32.4342L3.03441 43.6396C2.88791 52.7597 10.145 60.2847 19.2748 60.4797L30.4952 60.7195L41.7156 60.4797C50.8455 60.2847 58.1026 52.7597 57.9561 43.6396L57.7761 32.4342L57.9561 21.2287C58.1026 12.1088 50.8455 4.58373 41.7156 4.3886L30.4952 4.14893L19.2748 4.3886ZM30.8829 46.7029L26.6421 50.3714L22.78 46.2113C22.477 46.2617 22.1741 46.2996 21.8713 46.3248C21.5935 46.3751 21.278 46.4004 20.9246 46.4004H20.2431C18.4509 46.4004 16.9362 46.1609 15.6993 45.6819C14.4625 45.2028 13.4654 44.4085 12.7082 43.2993C11.9509 42.1647 11.4081 40.7149 11.08 38.9501C10.7518 37.1599 10.5878 35.0041 10.5878 32.483C10.5878 29.9617 10.7518 27.8186 11.08 26.0536C11.4081 24.2635 11.9509 22.8139 12.7082 21.7045C13.4654 20.5699 14.4625 19.7504 15.6993 19.2462C16.9362 18.7167 18.4509 18.452 20.2431 18.452C22.0353 18.452 23.5498 18.7167 24.7867 19.2462C26.0236 19.7504 27.0208 20.5699 27.778 21.7045C28.5353 22.8139 29.0781 24.2635 29.4062 26.0536C29.7344 27.8186 29.8984 29.9617 29.8984 32.483C29.8984 35.0798 29.7218 37.2733 29.3683 39.0635C29.0149 40.8536 28.4343 42.316 27.6266 43.4506L30.8829 46.7029ZM42.8352 28.7009V27.1882C42.8352 25.6502 42.6837 24.6039 42.3807 24.0493C42.0779 23.4946 41.5857 23.2172 40.9041 23.2172C40.374 23.2172 39.9449 23.3559 39.6168 23.6333C39.3138 23.9106 39.074 24.4022 38.8973 25.1082C38.7459 25.8141 38.6449 26.7722 38.5944 27.9825C38.5438 29.1674 38.5186 30.6677 38.5186 32.483C38.5186 34.2983 38.5438 35.811 38.5944 37.0212C38.6449 38.2063 38.7459 39.1517 38.8973 39.8577C39.074 40.5636 39.3138 41.0552 39.6168 41.3327C39.9449 41.6099 40.374 41.7487 40.9041 41.7487C41.3331 41.7487 41.6866 41.6478 41.9643 41.4461C42.242 41.2191 42.4565 40.8536 42.608 40.3494C42.7594 39.8451 42.8604 39.1769 42.9109 38.3449C42.9867 37.4877 43.0245 36.4162 43.0245 35.1303H49.8399V37.1348C49.8399 39.0257 49.5875 40.5763 49.0827 41.7864C48.5779 42.9967 47.909 43.9548 47.076 44.6607C46.2429 45.3415 45.2837 45.7953 44.1982 46.0222C43.1381 46.2743 42.04 46.4004 40.9041 46.4004C38.9351 46.4004 37.3197 46.1609 36.0575 45.6819C34.7954 45.2028 33.8109 44.4085 33.1041 43.2993C32.3973 42.1647 31.905 40.7149 31.6274 38.9501C31.375 37.1599 31.2487 35.0041 31.2487 32.483C31.2487 29.9112 31.4002 27.7304 31.7031 25.9402C32.0313 24.1501 32.5741 22.7003 33.3313 21.5911C34.0886 20.4816 35.0856 19.6874 36.3225 19.2083C37.5594 18.7041 39.0866 18.452 40.9041 18.452C42.4944 18.452 43.8448 18.6537 44.9556 19.0572C46.0662 19.4606 46.9623 20.0405 47.6439 20.7968C48.3507 21.528 48.8555 22.4231 49.1584 23.482C49.4866 24.5156 49.6507 25.6881 49.6507 26.9992V28.7009H42.8352Z" fill="white"/>
<path fill-rule="evenodd" clip-rule="evenodd" d="M91.0456 23.4225L97.2185 29.8208L103.391 23.4225H114.116L102.573 34.3912L114.116 45.3597H103.391L97.2185 38.945L91.0456 45.3597H80.3045L91.848 34.3912L80.3045 23.4225H91.0456ZM90.4505 34.3912L77.8955 22.4614H91.456L97.2185 28.4344L102.981 22.4614H116.057V22.4451H138.22C143.287 22.3934 147.577 26.6261 147.508 31.7049C147.506 33.5316 147.012 35.2156 146.022 36.7143C145.277 37.8487 144.333 38.7821 143.201 39.4919L147.927 45.5522V41.6219C147.927 38.5426 150.231 36.5794 152.881 35.2775C155.558 33.9631 158.935 33.1419 161.747 32.4775L161.751 32.4766L161.783 32.4685C163.517 32.0427 164.993 31.6802 166.043 31.2893C166.575 31.0911 166.924 30.9117 167.123 30.7593C167.148 30.74 167.169 30.7228 167.187 30.708C167.126 30.6521 167.002 30.5687 166.757 30.4726C166.185 30.249 165.209 30.0806 163.73 30.0801C162.15 30.0965 160.807 30.2248 159.89 30.5459C159.439 30.7043 159.166 30.8846 159.012 31.0539C158.882 31.1992 158.805 31.3717 158.812 31.6422L158.835 32.6263H148.271V31.6653C148.271 29.6924 148.658 28.0427 149.434 26.6911C150.213 25.3335 151.349 24.3422 152.733 23.6312C155.45 22.2362 159.192 21.8901 163.366 21.8901C167.639 21.8901 171.186 22.3826 173.698 23.6505C174.969 24.2931 176.002 25.1482 176.712 26.2602C177.424 27.3752 177.773 28.6876 177.773 30.18C177.773 32.9417 176.104 34.7007 174.059 35.8472C172.073 36.9603 169.574 37.5925 167.499 38.0982H177.413V46.2882H148.5L148.513 46.3046H136.932L132.789 40.9508H126.565V46.3046H116.507L116.525 46.3209H102.98L97.2185 40.3334L91.4567 46.3209H77.8955L90.4505 34.3912ZM116.057 45.8758V22.9064L103.97 34.3912L116.057 45.8758ZM133.264 39.9897L137.407 45.3434H146.543L141.745 39.1898C142.045 39.0508 142.332 38.897 142.607 38.7289C143.657 38.0869 144.529 37.234 145.216 36.1865C146.101 34.8481 146.543 33.3465 146.543 31.6979C146.609 27.1603 142.761 23.3572 138.225 23.4062H117.021V45.3434H125.6V39.9897H133.264ZM162.449 39.0593C162.749 38.6924 163.294 38.3804 164.016 38.0982C164.868 37.7652 165.965 37.4737 167.197 37.1823C171.421 36.1539 176.809 34.7502 176.809 30.18C176.809 24.8262 171.831 22.8512 163.366 22.8512C155.405 22.8512 149.76 24.1465 149.27 30.7041C149.247 31.0128 149.234 31.333 149.234 31.6653H157.848C157.847 31.6291 157.847 31.5934 157.848 31.5583C157.895 29.6084 160.589 29.1511 163.726 29.119C166.787 29.119 168.195 29.8045 168.195 30.735C168.195 31.8834 165.479 32.551 162.067 33.3889L161.974 33.4117C156.308 34.7502 148.891 36.611 148.891 41.6219V45.3271H176.447V39.0593H162.449ZM167.241 30.7817C167.241 30.7817 167.236 30.7756 167.233 30.7615C167.241 30.7743 167.241 30.7817 167.241 30.7817ZM136.983 31.6979C136.983 31.1842 136.579 30.782 136.064 30.782H126.565V32.5976H136.064C136.341 32.5976 136.535 32.5136 136.708 32.3405C136.906 32.1433 136.983 31.9461 136.983 31.6979ZM137.947 31.6979C137.947 30.6532 137.112 29.8208 136.064 29.8208H125.6V33.5586H136.064C136.587 33.5586 137.03 33.3791 137.39 33.0201C137.767 32.6446 137.947 32.204 137.947 31.6979Z" fill="white"/>
<path d="M81.0986 61.1861H85.208V55.5661L89.325 61.1861H91.3797L95.4968 55.5661V61.1861H99.6062V50.6514H94.4696L90.3524 55.9187L86.2432 50.6514H81.0986V61.1861Z" fill="white"/>
<path d="M108.263 50.3931C104.295 50.4009 101.049 51.5452 101.064 55.535V56.3031C101.049 60.285 104.295 61.4373 108.263 61.445C112.223 61.4373 115.47 60.285 115.455 56.3031V55.535C115.455 51.5531 112.231 50.3931 108.263 50.3931ZM111.345 56.0445C111.369 57.7689 109.941 58.0824 108.263 58.1059C106.577 58.0824 105.15 57.7689 105.174 56.0445V55.7859C105.15 54.0692 106.577 53.7556 108.263 53.7321C109.941 53.7556 111.369 54.0692 111.345 55.7859V56.0445Z" fill="white"/>
<path d="M126.966 55.9348C126.966 56.9929 126.363 57.863 125.297 57.863H120.795V54.0065H125.297C126.363 54.0065 126.966 54.8687 126.966 55.9348ZM116.686 50.6675V61.202H126.065C128.959 61.2413 131.108 58.7958 131.084 55.9348C131.108 53.0581 128.959 50.6282 126.065 50.6675H116.686Z" fill="white"/>
<path d="M142.525 56.052C142.548 57.7842 141.122 58.0821 139.443 58.1056C137.758 58.0821 136.338 57.7842 136.354 56.052V50.6514H132.244V56.3107C132.229 60.2925 135.491 61.4369 139.443 61.4447C143.396 61.4369 146.658 60.2925 146.643 56.3107V50.6514H142.525V56.052Z" fill="white"/>
<path d="M148.493 50.6514V61.1861H160.83V57.847H152.603V50.6514H148.493Z" fill="white"/>
<path d="M162.233 61.2016H174.57V58.4974H166.342V57.1492H174.57V54.7115H166.342V53.3632H174.57V50.667H162.233V61.2016Z" fill="white"/>
<path d="M83.4642 10.5186V8.29853H89.555C89.8501 8.29853 90.1069 8.40516 90.3163 8.62809C90.5352 8.84149 90.6399 9.10315 90.6399 9.41335C90.6399 9.71401 90.5352 9.97567 90.3163 10.1987C90.1069 10.412 89.8501 10.5186 89.555 10.5186H83.4642ZM78.4775 4.48856V17.5182H83.4642V14.3383H90.8017C93.4379 14.3771 95.6743 12.0988 95.6363 9.41335C95.6743 6.71834 93.4379 4.45938 90.8017 4.48856H78.4775Z" fill="white"/>
<path d="M105.562 4.14893C100.746 4.15861 96.8063 5.57409 96.8253 10.5087V11.4588C96.8063 16.3837 100.746 17.8087 105.562 17.8184C110.367 17.8087 114.308 16.3837 114.288 11.4588V10.5087C114.288 5.58377 110.377 4.14893 105.562 4.14893ZM109.301 11.1388C109.33 13.2716 107.598 13.6594 105.562 13.6886C103.516 13.6594 101.784 13.2716 101.812 11.1388V10.8189C101.784 8.69574 103.516 8.30796 105.562 8.27892C107.598 8.30796 109.33 8.69574 109.301 10.8189V11.1388Z" fill="white"/>
<path d="M133.732 12.7384L130.771 4.48828H125.157L122.188 12.7384L119.228 4.48828H113.613L119.228 17.5179H125.157L127.965 11.0031L130.771 17.5179H136.7L142.316 4.48828H136.7L133.732 12.7384Z" fill="white"/>
<path d="M142.697 17.5179H157.666V14.1733H147.683V12.5057H157.666V9.49065H147.683V7.8232H157.666V4.48828H142.697V17.5179Z" fill="white"/>
<path d="M160.322 4.4783V17.508H165.308V14.3282H169.763L172.17 17.508H177.48L174.692 13.8531C175.529 13.4556 176.205 12.8546 176.709 12.0693C177.224 11.2744 177.48 10.3825 177.48 9.40323C177.519 6.70808 175.282 4.44926 172.647 4.4783H160.322ZM171.389 8.28841C171.999 8.28841 172.485 8.78283 172.485 9.40323C172.485 9.70375 172.379 9.96555 172.161 10.1885C171.952 10.4019 171.694 10.5085 171.389 10.5085H165.308V8.28841H171.389Z" fill="white"/>
</svg>
