<svg width="36" height="36" viewBox="0 0 36 36" fill="none" xmlns="http://www.w3.org/2000/svg">
<g clipPath="url(#clip0_131_57)">
<path d="M34.9448 33.8906H33.8199V13.0784C33.8199 12.4959 33.3476 12.0237 32.7652 12.0237H28.5465C27.964 12.0237 27.4918 12.4959 27.4918 13.0784V33.8906H25.3825V20.1095C25.3825 19.527 24.9103 19.0548 24.3278 19.0548H20.1091C19.5266 19.0548 19.0544 19.527 19.0544 20.1095V33.8906H16.9451V23.9766C16.9451 23.3942 16.4729 22.922 15.8904 22.922H11.6717C11.0893 22.922 10.617 23.3942 10.617 23.9766V33.8906H8.5077V26.5079C8.5077 25.9254 8.03548 25.4532 7.45302 25.4532H3.23433C2.65187 25.4532 2.17966 25.9254 2.17966 26.5079V33.8906H1.05467C0.472212 33.8906 0 34.3628 0 34.9452C0 35.5277 0.472212 35.9999 1.05467 35.9999H34.9448C35.5273 35.9999 35.9995 35.5277 35.9995 34.9452C35.9995 34.3628 35.5273 33.8906 34.9448 33.8906Z" fill="#FF8800"/>
<path d="M1.05467 22.662C7.6371 22.662 14.7753 20.298 21.1544 16.0054C26.1503 12.6435 30.315 8.34864 32.9019 3.95087L33.9262 7.77349C34.0524 8.24472 34.6621 8.65182 35.2179 8.51922C35.7844 8.38408 36.1143 7.79016 35.9636 7.22752L34.2365 0.782064C34.0857 0.219502 33.5077 -0.114478 32.9448 0.0363403L26.4994 1.7634C25.9367 1.91415 25.6029 2.49246 25.7536 3.0551C25.9045 3.61773 26.4825 3.95171 27.0453 3.80082L31.1976 2.68821C28.7841 6.88201 24.7955 11.0127 19.9767 14.2554C13.942 18.3163 7.22205 20.5527 1.05467 20.5527C0.472212 20.5527 0 21.0249 0 21.6074C0 22.1898 0.472212 22.662 1.05467 22.662Z" fill="#FF8800"/>
</g>
<defs>
<clipPath id="clip0_131_57">
<rect width="36" height="36" fill="white"/>
</clipPath>
</defs>
</svg>
