<svg width="36" height="36" viewBox="0 0 36 36" fill="none" xmlns="http://www.w3.org/2000/svg">
<g clipPath="url(#clip0_131_55)">
<path d="M18.0426 6.91192C18.2275 6.91192 18.4078 6.89269 18.5819 6.85576L18.5821 8.97598C18.2223 8.95444 17.8624 8.95444 17.5034 8.97598L17.5033 6.85584C17.6774 6.89277 17.8577 6.91192 18.0426 6.91192ZM27.0633 17.4435C27.0848 17.8018 27.0848 18.1616 27.0633 18.5207H29.3991C29.3622 18.347 29.3429 18.1663 29.3429 17.9819C29.3429 17.7974 29.3622 17.6173 29.3991 17.4435H27.0633ZM7.11448 17.4435C7.15138 17.6173 7.17064 17.7973 7.17064 17.9819C7.17064 18.1664 7.15138 18.347 7.11448 18.5207H9.01575C9.00497 18.3417 8.99957 18.1625 8.99957 17.9819C8.99957 17.8012 9.00497 17.6219 9.01575 17.4435H7.11448ZM24.4354 11.5984C24.564 11.7268 24.6873 11.8575 24.8051 11.9913L27.0115 9.78811C26.8644 9.66656 26.7219 9.5374 26.5849 9.40054C26.4654 9.2813 26.3522 9.15822 26.2443 9.03129C26.2444 9.03136 26.2443 9.03121 26.2443 9.03129L24.0422 11.2297C24.1763 11.3474 24.3075 11.4707 24.4354 11.5984ZM18.5819 29.1095L18.5821 26.9954C18.4033 27.0062 18.2229 27.0116 18.0419 27.0116C17.8608 27.0116 17.6821 27.0062 17.5034 26.9954L17.5033 29.1094C17.6774 29.0733 17.8577 29.054 18.0426 29.054C18.2275 29.054 18.4078 29.0733 18.5819 29.1095ZM26.3121 27.0032C26.4261 26.8663 26.5486 26.7332 26.6765 26.6055C26.8044 26.4778 26.9377 26.3562 27.0748 26.2416L24.8045 23.9746C24.6874 24.1076 24.5641 24.2384 24.4362 24.3661C24.3083 24.4938 24.1766 24.6177 24.0418 24.7361L26.3121 27.0032ZM11.2777 23.9738L9.06968 26.1801C9.20681 26.2939 9.33932 26.4155 9.46798 26.5439C9.59586 26.6716 9.71759 26.8047 9.83238 26.9417L12.0403 24.7354C11.9062 24.6169 11.7753 24.4938 11.6474 24.3661C11.5195 24.2384 11.3964 24.1076 11.2777 23.9738ZM9.50118 9.40054C9.36328 9.53824 9.21922 9.66748 9.07207 9.78826L11.2776 11.9908C11.3962 11.8569 11.5196 11.726 11.6474 11.5983C11.7753 11.4706 11.9063 11.3475 12.0404 11.229L9.84008 9.03198C9.73377 9.15814 9.62059 9.2813 9.50118 9.40054ZM18.0426 5.98955C18.9841 5.98955 19.7491 5.22412 19.7491 4.28329C19.7491 3.34246 18.9841 2.57933 18.0426 2.57933C17.1012 2.57933 16.3339 3.344 16.3339 4.28329C16.3339 5.22258 17.1004 5.98955 18.0426 5.98955ZM18.0426 20.672C15.7276 20.672 13.7045 22.1721 13.0242 24.3553C14.4495 25.4793 16.1983 26.0893 18.0419 26.0893C19.8854 26.0893 21.6335 25.48 23.0587 24.3561C22.3792 22.1729 20.3569 20.672 18.0426 20.672ZM23.7829 12.2507C22.1997 10.6714 20.1204 9.88134 18.0419 9.88134C15.9633 9.88134 13.8832 10.6706 12.3001 12.2507C10.7677 13.7816 9.92336 15.8171 9.92336 17.9819C9.92336 20.1466 10.7593 22.1629 12.2785 23.6907C12.9426 21.9706 14.3355 20.6597 16.0458 20.0789C15.0473 19.4266 14.3855 18.3003 14.3855 17.0226C14.3855 15.0094 16.0265 13.3716 18.0426 13.3716C20.0588 13.3716 21.6974 15.0094 21.6974 17.0226C21.6974 18.3003 21.0364 19.4266 20.038 20.0789C21.7475 20.6597 23.1412 21.9706 23.8045 23.6915C26.9477 20.5297 26.94 15.4032 23.7829 12.2507ZM32.4877 4.49484C32.4877 3.60248 31.7604 2.87551 30.866 2.87551C29.9715 2.87551 29.2443 3.60248 29.2443 4.49484C29.2443 5.38721 29.9723 6.11418 30.866 6.11418C31.7596 6.11418 32.4877 5.38798 32.4877 4.49484ZM29.2327 6.44266C28.675 5.97571 28.3206 5.27643 28.3206 4.49484C28.3206 3.09321 29.4623 1.95314 30.866 1.95314C32.2696 1.95314 33.4114 3.09321 33.4114 4.49484C33.4114 5.27643 33.0562 5.97648 32.4985 6.44343C33.4545 6.84653 34.2396 7.59581 34.6787 8.55741C36.4938 6.54728 36.4337 3.43401 34.4961 1.49773C33.4954 0.499202 32.1803 -6.10352e-05 30.8667 -6.10352e-05C29.5532 -6.10352e-05 28.2381 0.499202 27.2374 1.49773C26.2674 2.46625 25.7336 3.75403 25.7336 5.12258C25.7336 6.4042 26.2012 7.6135 27.0556 8.55741C27.4932 7.59581 28.2767 6.84653 29.2327 6.44266ZM30.866 7.03654C29.4638 7.03654 28.2351 7.92122 27.7828 9.2213C29.6017 10.5875 32.131 10.5875 33.9514 9.22053C33.4969 7.92122 32.2666 7.03654 30.866 7.03654ZM30.2666 17.9819C30.2666 18.9227 31.0332 19.6881 31.9754 19.6881C32.9176 19.6881 33.6818 18.9227 33.6818 17.9819C33.6818 17.041 32.9168 16.2779 31.9754 16.2779C31.0339 16.2779 30.2666 17.0426 30.2666 17.9819ZM32.5223 30.2219C32.5223 29.3403 31.8036 28.6225 30.9207 28.6225C30.0378 28.6225 29.319 29.3403 29.319 30.2219C29.319 31.1035 30.037 31.8212 30.9207 31.8212C31.8043 31.8212 32.5223 31.1042 32.5223 30.2219ZM30.9207 32.7436C29.5347 32.7436 28.3206 33.6167 27.873 34.8999C29.6711 36.25 32.1703 36.2492 33.9684 34.8999C33.5208 33.6167 32.3059 32.7436 30.9207 32.7436ZM34.5123 27.2578C33.5524 26.2993 32.2774 25.7716 30.9207 25.7716C29.564 25.7716 28.289 26.2993 27.3298 27.2578C26.3699 28.2148 25.8414 29.488 25.8414 30.8427C25.8414 32.1074 26.3021 33.3021 27.1449 34.2352C27.5794 33.2882 28.3522 32.5489 29.2951 32.1505C28.7451 31.6874 28.3953 30.995 28.3953 30.2219C28.3953 28.8318 29.5278 27.7002 30.9207 27.7002C32.3136 27.7002 33.4461 28.8318 33.4461 30.2219C33.4461 30.995 33.0963 31.6874 32.5462 32.1505C33.4892 32.5489 34.2619 33.2882 34.6956 34.236C35.5392 33.3028 35.9999 32.1082 35.9999 30.8427C35.9999 29.488 35.4714 28.2148 34.5123 27.2578ZM18.0426 29.9765C17.1004 29.9765 16.3339 30.7411 16.3339 31.6812C16.3339 32.6213 17.1004 33.3875 18.0426 33.3875C18.9848 33.3875 19.7491 32.622 19.7491 31.6812C19.7491 30.7404 18.9841 29.9765 18.0426 29.9765ZM5.16228 32.7659C3.75167 32.7659 2.5144 33.6559 2.05833 34.9645C2.94891 35.6361 4.02824 35.9999 5.16305 35.9999C6.29785 35.9999 7.37718 35.6368 8.267 34.9645C7.81015 33.6559 6.57288 32.7659 5.16228 32.7659ZM6.79476 30.2134C6.79476 29.3134 6.06288 28.581 5.16228 28.581C4.26168 28.581 3.52979 29.3134 3.52979 30.2134C3.52979 31.1135 4.26245 31.8435 5.16228 31.8435C6.06211 31.8435 6.79476 31.1119 6.79476 30.2134ZM5.16305 25.6893C3.84027 25.6893 2.51749 26.1916 1.5098 27.1971C-0.441629 29.1457 -0.501721 32.2782 1.33107 34.2991C1.77251 33.3313 2.56294 32.5766 3.52594 32.172C2.96432 31.7043 2.60608 30.9996 2.60608 30.2134C2.60608 28.8049 3.75321 27.6586 5.16228 27.6586C6.57134 27.6586 7.71847 28.8049 7.71847 30.2134C7.71847 30.9996 7.36101 31.7043 6.79861 32.172C7.76238 32.5774 8.55282 33.3321 8.99426 34.3006C9.85557 33.3513 10.3271 32.1328 10.3271 30.8427C10.3271 29.4649 9.79008 28.1702 8.81475 27.1963C7.80861 26.1916 6.48583 25.6893 5.16305 25.6893ZM2.83104 17.9819C2.83104 18.9227 3.59682 19.6881 4.53825 19.6881C5.47968 19.6881 6.247 18.9227 6.247 17.9819C6.247 17.041 5.48045 16.2779 4.53825 16.2779C3.59605 16.2779 2.83104 17.0426 2.83104 17.9819ZM5.21698 7.03654C3.81638 7.03654 2.58682 7.92122 2.13151 9.22053C3.95043 10.5868 6.48044 10.5875 8.30013 9.22207C7.84867 7.92199 6.61911 7.03654 5.21698 7.03654ZM6.83867 4.49484C6.83867 3.60248 6.11141 2.87551 5.21698 2.87551C4.32254 2.87551 3.59528 3.60248 3.59528 4.49484C3.59528 5.38721 4.32331 6.11418 5.21698 6.11418C6.11064 6.11418 6.83867 5.38798 6.83867 4.49484ZM3.58449 6.44343C3.02672 5.97648 2.67157 5.27643 2.67157 4.49484C2.67157 3.09321 3.8133 1.95314 5.21698 1.95314C6.62065 1.95314 7.76238 3.09321 7.76238 4.49484C7.76238 5.27643 7.408 5.97571 6.85023 6.44266C7.80707 6.84653 8.59057 7.59658 9.02816 8.55895C10.8455 6.54882 10.7854 3.43401 8.84711 1.49773C7.84713 0.499202 6.53205 -6.10352e-05 5.21698 -6.10352e-05C3.9019 -6.10352e-05 2.58759 0.499202 1.58684 1.49773C-0.350722 3.43401 -0.410813 6.54728 1.40502 8.55741C1.84415 7.59581 2.62765 6.84653 3.58449 6.44343ZM20.7737 17.0226C20.7737 15.5179 19.5488 14.2939 18.0426 14.2939C16.5365 14.2939 15.3092 15.5179 15.3092 17.0226C15.3092 18.5273 16.5357 19.7497 18.0426 19.7497C19.5495 19.7497 20.7737 18.5265 20.7737 17.0226Z" fill="#FF8800"/>
</g>
<defs>
<clipPath id="clip0_131_55">
<rect width="36" height="36" fill="white"/>
</clipPath>
</defs>
</svg>
