<svg width="210" height="130" viewBox="0 0 210 130" fill="none" xmlns="http://www.w3.org/2000/svg">
<path d="M193.358 10L46.5924 10C32.2546 10 24.6905 27.839 34.2867 39.0623L107.669 124.241C114.217 131.92 125.733 131.92 132.281 124.241L205.663 39.0623C215.372 27.839 207.695 10 193.358 10Z" fill="white" fill-opacity="0.03"/>
<path d="M16.5928 0.5L163.357 0.5C177.226 0.5 184.742 17.8042 175.285 28.7354L175.284 28.7363L101.902 113.914L101.9 113.916C95.552 121.361 84.3982 121.361 78.0498 113.916L78.0479 113.914L4.66602 28.7373H4.66699C-4.68407 17.8008 2.73081 0.5 16.5928 0.5Z" stroke="#FF8800" stroke-opacity="0.1"/>
</svg>
