<svg width="180" height="91" viewBox="0 0 180 91" fill="none" xmlns="http://www.w3.org/2000/svg">
<path d="M14.0356 19.5617C12.9254 16.7361 13.4073 13.4872 14.43 10.7548C15.506 7.87955 17.3796 5.01217 20.1798 3.5C20.3188 6.52995 19.3945 9.5235 18.3846 12.2229C17.4763 14.6508 16.362 17.2375 14.5218 19.2454C14.239 20.7669 14.0223 22.2841 13.8699 23.7944C14.4798 22.1989 15.4688 20.7447 16.7027 19.5753C18.2914 18.0696 20.6547 16.9078 22.873 17.5948C22.2233 20.0504 20.7422 22.4044 18.9882 24.0557C17.6076 25.3554 15.7851 27.0209 13.6384 27.0863C13.5499 29.3088 13.5999 31.511 13.7825 33.6833C14.0854 32.0936 14.7343 30.5966 15.6718 29.4819C16.9598 27.9501 18.8695 26.0787 21.3084 26.3917C21.1753 28.8771 20.1853 31.4235 18.8066 33.337C17.711 34.8575 16.2648 36.7955 14.2119 37.2962C14.5406 39.4306 14.9985 41.5298 15.5794 43.5837C15.585 42.011 15.9319 40.4673 16.6201 39.2292C17.5899 37.4832 19.1005 35.3059 21.5423 35.1356C21.9002 37.5739 21.4152 40.2393 20.4369 42.3593C19.655 44.0538 18.6126 46.2147 16.7125 47.1088C17.5104 49.3187 18.4546 51.4668 19.5373 53.5402C19.1572 51.7531 19.1724 49.8699 19.6222 48.1756C20.2421 45.8397 21.7808 43.386 24.2512 42.6739C25.1244 45.2527 25.004 48.1308 24.4967 50.7519C24.0792 52.91 23.2589 55.4447 21.4201 56.8466C22.6223 58.7893 23.9522 60.6538 25.4025 62.4277C24.6232 60.6879 24.236 58.7851 24.4437 57.043C24.7464 54.5051 25.4586 51.7902 28.0472 50.4371C29.5159 52.9746 29.8562 55.8213 29.9809 58.633C30.0818 60.9061 29.7548 63.7098 28.1783 65.559C29.9124 67.3645 31.7836 69.0543 33.7821 70.6125C32.4918 68.9551 31.5883 67.0101 31.397 65.0867C31.1268 62.3691 31.2589 59.3775 33.6673 57.3832C35.7269 59.5374 36.956 62.71 37.5584 65.4656C38.0911 67.9019 38.6471 70.7856 37.3789 73.1832C39.9223 74.8457 42.6376 76.3105 45.5083 77.5509C43.4883 76.1094 41.8347 74.1317 41.0469 72.0898C40.0146 69.4132 39.3761 66.2238 41.387 63.5432C44.0812 65.2713 46.0614 68.2197 47.6215 70.9088C48.9601 73.2161 50.3457 76.4008 49.6583 79.1488C51.2477 79.6889 52.8782 80.1631 54.5476 80.5677L54.4483 80.9781C52.7726 80.5719 51.1358 80.0961 49.5399 79.5545C48.4218 82.8632 44.7591 83.9562 41.797 84.4389C37.5764 85.1265 32.5509 83.7942 28.9478 81.1104C30.8495 78.4191 34.7296 78.1461 37.6554 77.9401L37.6935 77.9375C40.8987 77.7119 44.3654 78.0132 47.5886 78.8518C43.865 77.4324 40.3809 75.6478 37.1682 73.5497L37.1208 73.6246C35.3603 76.4832 31.8257 76.5947 29.0512 76.4139C25.2864 76.1686 20.9399 73.8762 18.4242 70.7075C20.7904 68.6285 24.2854 69.2104 26.9935 69.6612L27.0066 69.6633C30.029 70.1664 33.3317 71.264 36.1041 72.954C35.84 72.7457 35.5816 72.5254 35.3304 72.2944C32.635 70.3699 30.1485 68.2173 27.8922 65.8702C27.866 65.8964 27.8395 65.9225 27.8127 65.9484C25.6188 68.1585 22.4236 67.5798 19.9299 66.8605C16.593 65.898 13.1323 62.9942 11.4738 59.6606C14.0438 58.2186 17.1164 59.4069 19.5063 60.3468C22.1294 61.3784 24.9048 63.0287 27.0387 65.1324C26.8187 64.8545 26.6088 64.5641 26.4105 64.2637C24.427 62.0219 22.6427 59.6214 21.0741 57.089L20.9954 57.1384C18.5135 58.7422 15.7015 57.5808 13.4729 56.4385C10.4511 54.89 8.02289 51.4866 6.97365 48.1395C9.65425 47.2797 12.3027 48.9673 14.3615 50.3037C16.6133 51.7653 18.8942 53.8499 20.4598 56.2406C20.3448 56.0051 20.2377 55.7643 20.139 55.5189C18.6346 52.8908 17.3567 50.1317 16.3221 47.2696L16.2688 47.2878L16.2644 47.2894C14.0078 48.1484 11.4948 46.8128 9.85644 45.3481C7.57936 43.3125 5.97439 40.183 5.59813 37.1255C7.95089 36.8203 10.1675 38.6431 11.683 40.1978C13.4274 41.9872 14.9931 44.1021 15.9556 46.4511C15.8854 46.196 15.8251 45.9368 15.7744 45.675C14.8985 42.9854 14.235 40.2117 13.7976 37.376L13.7635 37.3802L13.752 37.3821C11.3662 37.7809 9.16039 35.9646 7.84254 34.2018C5.99361 31.7282 5.04048 28.3047 5.27938 25.2017C7.6559 25.3682 9.46551 27.6321 10.639 29.4635C11.9972 31.5836 13.1235 33.9831 13.6169 36.4933C13.6018 36.2936 13.5929 36.0927 13.5898 35.8913C13.2275 33.0052 13.0984 30.0599 13.2165 27.0783L13.2097 27.0779C10.7841 26.9904 8.99139 24.7352 8.06588 22.7348C6.74157 19.8721 6.52837 16.2536 7.41229 13.2041C9.72415 13.8539 11.013 16.5095 11.7737 18.5537C12.6508 20.9106 13.263 23.4811 13.2679 26.0368C13.3941 23.8927 13.6482 21.7317 14.0356 19.5617Z" fill="white"/>
<path d="M61.8088 14.272V24.5091C61.8088 29.0117 57.7367 31.178 51.5648 31.178C45.7958 31.178 41.66 29.033 41.66 23.9782V14.272H47.4078V23.9782C47.4078 25.7835 48.956 26.9091 51.7981 26.9091C54.5129 26.9091 56.1249 25.7409 56.1249 23.9993V14.272H61.8088Z" fill="white"/>
<path d="M80.9512 26.5055V30.9444H65.0654V14.272H70.8132V26.5055H80.9512Z" fill="white"/>
<path d="M98.0332 18.456V14.272H78.16V18.456H85.1804V30.9444H90.9918V18.456H98.0332Z" fill="white"/>
<path fill-rule="evenodd" clip-rule="evenodd" d="M118.421 15.9712C119.185 16.757 119.547 17.8402 119.547 19.348C119.547 20.6437 119.229 21.7481 118.697 22.4914C118.103 23.2985 117.191 23.9782 116.067 24.1481L121.095 30.9444H114.774L110.638 25.0612H105.484V30.9444H99.8213V14.272H113.077C115.707 14.272 117.425 14.9091 118.421 15.9712ZM113.841 20.7499C113.989 20.495 114.031 20.1551 114.031 19.8791C114.031 19.5605 113.989 19.2206 113.841 19.0083C113.544 18.456 112.95 18.3075 112.058 18.3075H105.505V21.3446H112.165C113.077 21.3446 113.629 21.1747 113.841 20.7499Z" fill="white"/>
<path fill-rule="evenodd" clip-rule="evenodd" d="M128.746 27.8649H137.739L139.202 30.9444H145.332L136.933 14.272H130.083L121.196 30.9444H127.197L128.746 27.8649ZM135.935 24.1267H130.612L132.713 20.1128L133.349 18.5834L133.943 20.0914L135.935 24.1267Z" fill="white"/>
<path fill-rule="evenodd" clip-rule="evenodd" d="M117.814 34.0845C114.256 34.0845 112.385 35.7732 112.385 38.2547C112.385 41.0556 114.349 42.4764 117.814 42.4764C121.629 42.4764 123.234 40.829 123.234 38.2547C123.234 35.6393 121.423 34.0845 117.814 34.0845ZM117.814 40.4069C115.789 40.4069 115.202 39.5728 115.202 38.2857C115.202 37.0192 115.84 36.1852 117.804 36.1852C119.953 36.1852 120.436 37.1221 120.436 38.2857C120.436 39.5214 119.85 40.4069 117.814 40.4069Z" fill="white"/>
<path d="M107.111 42.3526V37.5646H101.744V39.3048H104.613C104.592 39.4387 104.489 39.6961 104.356 39.8504C104.057 40.2006 103.266 40.5095 102.237 40.5095C101.168 40.5095 100.479 40.2314 100.109 39.799C99.8623 39.4798 99.7183 39.0267 99.7183 38.3472C99.7183 37.6367 99.8623 37.1528 100.14 36.8336C100.541 36.3805 101.219 36.1849 102.217 36.1849C103.112 36.1849 103.728 36.3907 104.016 36.6481C104.201 36.8026 104.345 37.0189 104.376 37.163H107.039C107.029 36.9055 106.947 36.4938 106.803 36.1952C106.165 34.8978 104.685 34.1255 102.166 34.1255C99.9753 34.1255 98.5049 34.7947 97.6926 35.8039C97.1579 36.4938 96.9111 37.3586 96.9111 38.3265C96.9111 39.3975 97.199 40.3138 97.672 40.9214C98.474 41.9615 99.9033 42.4761 101.62 42.4761C103.132 42.4761 104.171 42.1158 104.829 41.5702L104.901 42.3526H107.111Z" fill="white"/>
<path d="M79.1007 37.462C81.188 37.6885 82.0826 38.43 82.0826 39.8406C82.0826 41.5499 80.4168 42.4765 77.1366 42.4765C74.0828 42.4765 72.7667 41.6116 72.2627 40.479C72.1496 40.2113 72.0982 39.8818 72.0673 39.6758H75.0287C75.0493 39.7993 75.1213 39.9847 75.2241 40.1082C75.4708 40.4069 76.1597 40.5819 77.332 40.5819C78.8437 40.5819 79.2035 40.3656 79.2035 39.9642C79.2035 39.5316 78.8334 39.439 77.4657 39.2948C76.9208 39.2434 76.057 39.1609 75.6972 39.1301C73.0854 38.8932 72.1188 38.0798 72.1188 36.6898C72.1188 35.2481 73.8257 34.1465 76.9413 34.1465C79.7073 34.1465 80.9927 34.9702 81.5274 35.9999C81.6919 36.3088 81.7946 36.6588 81.8255 36.9059H78.8641C78.8538 36.7927 78.8127 36.6794 78.6997 36.5352C78.4734 36.2367 77.8975 36.041 76.8693 36.041C75.4195 36.041 75.039 36.216 75.039 36.5867C75.039 36.9986 75.5224 37.0914 77.1366 37.2664C77.7638 37.3178 78.7614 37.4207 79.1007 37.462Z" fill="white"/>
<path fill-rule="evenodd" clip-rule="evenodd" d="M49.5802 34.9599C50.125 35.3923 50.4335 36.1234 50.4335 37.1839C50.4335 38.049 50.2177 38.6975 49.8063 39.1506C49.2511 39.789 48.3359 40.0774 47.1432 40.0877C46.7729 40.098 43.6059 40.0877 43.6059 40.0877V42.3529H40.8398V34.27H47.1019C48.2125 34.27 49.0557 34.4965 49.5802 34.9599ZM47.5339 37.812C47.6161 37.668 47.6573 37.4825 47.6573 37.2251C47.6573 36.9575 47.6057 36.7309 47.5133 36.6073C47.3385 36.3499 47.0095 36.2263 46.4747 36.2263H43.5853V38.2033H46.4541C47.0299 38.2033 47.3693 38.0694 47.5339 37.812Z" fill="white"/>
<path fill-rule="evenodd" clip-rule="evenodd" d="M60.552 35.0937C60.9223 35.4747 61.0971 35.9999 61.0971 36.7309C61.0971 37.3589 60.9428 37.8944 60.6857 38.2548C60.3979 38.6461 59.9557 38.9756 59.4107 39.058L61.8477 42.3529H58.7835L56.7783 39.5008H54.2796V42.3529H51.5342V34.27H57.9609C59.2359 34.27 60.0688 34.5789 60.552 35.0937ZM58.331 37.4106C58.403 37.287 58.4235 37.1222 58.4235 36.9883C58.4235 36.8339 58.403 36.6691 58.331 36.5662C58.187 36.2984 57.8992 36.2263 57.4674 36.2263H54.2899V37.6988H57.5187C57.9609 37.6988 58.2283 37.6164 58.331 37.4106Z" fill="white"/>
<path d="M71.2342 42.3529V40.3451H65.4452V39.2948H70.9977V37.3281H65.4452V36.2881H71.1622V34.27H62.7305V42.3529H71.2342Z" fill="white"/>
<path d="M92.0887 36.2984V34.27H82.454V36.2984H85.8574V42.3529H88.6748V36.2984H92.0887Z" fill="white"/>
<path d="M95.7934 34.27V42.3529H92.9656V34.27H95.7934Z" fill="white"/>
<path d="M111.268 34.27V42.3529H108.44V34.27H111.268Z" fill="white"/>
<path d="M134.144 34.27V39.233C134.144 41.416 132.169 42.4663 129.177 42.4663C126.381 42.4663 124.375 41.4263 124.375 38.9756V34.27H127.162V38.9756C127.162 39.8508 127.912 40.3966 129.291 40.3966C130.607 40.3966 131.388 39.8303 131.388 38.9859V34.27H134.144Z" fill="white"/>
<path d="M145.244 39.8406C145.244 38.43 144.349 37.6885 142.262 37.462C141.922 37.4207 140.926 37.3178 140.298 37.2664C138.683 37.0914 138.199 36.9986 138.199 36.5867C138.199 36.216 138.58 36.041 140.031 36.041C141.058 36.041 141.635 36.2367 141.861 36.5352C141.974 36.6794 142.014 36.7927 142.025 36.9059H144.987C144.956 36.6588 144.852 36.3088 144.688 35.9999C144.153 34.9702 142.869 34.1465 140.102 34.1465C136.987 34.1465 135.279 35.2481 135.279 36.6898C135.279 38.0798 136.247 38.8932 138.858 39.1301L139.026 39.145L139.306 39.1706L140.627 39.2948C141.995 39.439 142.364 39.5316 142.364 39.9642C142.364 40.3656 142.006 40.5819 140.494 40.5819C139.321 40.5819 138.633 40.4069 138.385 40.1082C138.283 39.9847 138.21 39.7993 138.191 39.6758H135.229C135.26 39.8818 135.311 40.2113 135.424 40.479C135.928 41.6116 137.243 42.4765 140.298 42.4765C143.578 42.4765 145.244 41.5499 145.244 39.8406Z" fill="white"/>
<path fill-rule="evenodd" clip-rule="evenodd" d="M73.34 45.4478C71.0278 45.4478 69.8115 46.5454 69.8115 48.1582C69.8115 49.9783 71.088 50.9018 73.34 50.9018C75.8195 50.9018 76.8619 49.8312 76.8619 48.1582C76.8619 46.4584 75.6858 45.4478 73.34 45.4478ZM73.34 49.5568C72.0236 49.5568 71.6426 49.0146 71.6426 48.1781C71.6426 47.3551 72.057 46.8129 73.3334 46.8129C74.7301 46.8129 75.0443 47.4219 75.0443 48.1781C75.0443 48.9812 74.6633 49.5568 73.34 49.5568Z" fill="white"/>
<path d="M60.4809 49.1885C60.4809 48.2717 59.8995 47.7897 58.5428 47.6426C58.3223 47.6158 57.6741 47.5489 57.2664 47.5155C56.2172 47.4016 55.9031 47.3414 55.9031 47.0738C55.9031 46.8328 56.1504 46.7191 57.0927 46.7191C57.761 46.7191 58.1351 46.8461 58.2823 47.0402C58.3557 47.134 58.3824 47.2075 58.3892 47.2812H60.3138C60.2937 47.1205 60.227 46.893 60.12 46.6923C59.7724 46.0231 58.9371 45.4878 57.1393 45.4878C55.1146 45.4878 54.0052 46.2037 54.0052 47.1407C54.0052 48.0442 54.6333 48.5729 56.3307 48.7267C56.5647 48.7468 57.1261 48.8004 57.4803 48.8338C58.3691 48.9274 58.6096 48.9878 58.6096 49.2688C58.6096 49.5298 58.3758 49.6703 57.3934 49.6703C56.6315 49.6703 56.1838 49.5565 56.0233 49.3625C55.9566 49.2821 55.9098 49.1617 55.8965 49.0814H53.9717C53.9918 49.2153 54.0252 49.4293 54.0987 49.6034C54.4262 50.3395 55.2817 50.9016 57.2664 50.9016C59.3983 50.9016 60.4809 50.2994 60.4809 49.1885Z" fill="white"/>
<path fill-rule="evenodd" clip-rule="evenodd" d="M47.1375 49.3356C47.1375 49.697 47.0371 50.0517 46.8367 50.2859C46.5293 50.6607 45.9545 50.8212 45.2129 50.8212H40.5549V45.5679H45.0858C45.8076 45.5679 46.2687 45.742 46.5227 46.0029C46.7498 46.2304 46.8502 46.5316 46.8502 46.8728C46.8502 47.2143 46.7699 47.4953 46.5962 47.7027C46.4557 47.8768 46.2153 48.0105 45.9613 48.0441C46.3355 48.0908 46.6897 48.2783 46.8902 48.5392C47.0572 48.7333 47.1375 49.0278 47.1375 49.3356ZM44.8854 47.4953C44.9521 47.4216 44.9923 47.3145 44.9923 47.1875C44.9923 47.0603 44.9521 46.9532 44.8653 46.8797C44.7718 46.7925 44.5979 46.7591 44.344 46.7591H42.3058V47.6157H44.3908C44.618 47.6157 44.7919 47.5823 44.8854 47.4953ZM44.5846 49.6301C44.8986 49.6301 45.0858 49.5899 45.1928 49.4896C45.2595 49.4226 45.2862 49.3223 45.2862 49.1951C45.2862 49.0612 45.2529 48.9609 45.1727 48.8806C45.0725 48.7936 44.8986 48.7534 44.6047 48.7534H42.3058V49.6301H44.5846Z" fill="white"/>
<path d="M53.4301 49.5164V50.8212H47.9034V45.5679H53.3833V46.8797H49.6676V47.5555H53.2763V48.8337H49.6676V49.5164H53.4301Z" fill="white"/>
<path d="M66.9844 45.5679V46.8863H64.7657V50.8212H62.9347V46.8863H60.7227V45.5679H66.9844Z" fill="white"/>
<path d="M82.9769 45.5679V46.8996H79.4149V47.6425H82.8098V48.9609H79.4149V50.8212H77.6172V45.5679H82.9769Z" fill="white"/>
<path d="M92.0313 46.8863V45.5679H85.7695V46.8863H87.9816V50.8212H89.8127V46.8863H92.0313Z" fill="white"/>
<path d="M98.8633 45.5679V50.8212H97.0722V48.914H94.3856V50.8212H92.5947V45.5679H94.3856V47.4818H97.0722V45.5679H98.8633Z" fill="white"/>
<path d="M105.451 50.8212V49.5164H101.688V48.8337H105.297V47.5555H101.688V46.8797H105.404V45.5679H99.924V50.8212H105.451Z" fill="white"/>
<path d="M116.53 45.5679H118.26L116.343 50.8212H114.379C114.379 50.8212 113.328 47.6827 113.321 47.5956C113.316 47.6827 112.259 50.8212 112.259 50.8212H110.302L108.337 45.5679H110.281C110.281 45.5679 111.418 48.8738 111.418 48.9541C111.418 48.8738 112.467 45.5679 112.467 45.5679H114.345C114.345 45.5679 115.401 48.8738 115.401 48.9541C115.401 48.8738 116.53 45.5679 116.53 45.5679Z" fill="white"/>
<path fill-rule="evenodd" clip-rule="evenodd" d="M121.692 45.4478C119.38 45.4478 118.164 46.5454 118.164 48.1582C118.164 49.9783 119.44 50.9018 121.692 50.9018C124.172 50.9018 125.214 49.8312 125.214 48.1582C125.214 46.4584 124.037 45.4478 121.692 45.4478ZM121.692 49.5568C120.376 49.5568 119.995 49.0146 119.995 48.1781C119.995 47.3551 120.41 46.8129 121.685 46.8129C123.083 46.8129 123.396 47.4219 123.396 48.1781C123.396 48.9812 123.015 49.5568 121.692 49.5568Z" fill="white"/>
<path fill-rule="evenodd" clip-rule="evenodd" d="M131.832 46.1034C132.071 46.351 132.185 46.6922 132.185 47.1674C132.185 47.5756 132.085 47.9235 131.918 48.1579C131.731 48.4121 131.444 48.6263 131.089 48.6797L132.673 50.8212H130.682L129.378 48.9676H127.755V50.8212H125.971V45.5679H130.147C130.976 45.5679 131.517 45.7688 131.832 46.1034ZM130.389 47.6091C130.434 47.5287 130.448 47.4216 130.448 47.3347C130.448 47.2342 130.434 47.1273 130.389 47.0603C130.294 46.8863 130.107 46.8394 129.826 46.8394H127.762V47.7965H129.859C130.147 47.7965 130.32 47.7429 130.389 47.6091Z" fill="white"/>
<path d="M138.252 50.8212V49.4226H135.058V45.5679H133.247V50.8212H138.252Z" fill="white"/>
<path fill-rule="evenodd" clip-rule="evenodd" d="M145.339 48.0975C145.339 48.914 145.259 49.3557 145.019 49.7707C144.657 50.433 143.943 50.8212 142.679 50.8212H138.964V45.5679H142.639C143.896 45.5679 144.638 45.9226 145.005 46.5316C145.266 46.9399 145.339 47.3747 145.339 48.0975ZM142.338 49.5297C142.906 49.5297 143.228 49.3958 143.422 49.1015C143.543 48.9207 143.576 48.4991 143.576 48.1311C143.569 47.7965 143.529 47.4418 143.422 47.2811C143.214 46.9666 142.901 46.8529 142.352 46.8529H140.755V49.5297H142.338Z" fill="white"/>
<path d="M73.6515 76.3711H70.8823C70.8823 76.3711 69.0753 81.6605 69.0753 81.7889C69.0753 81.6605 67.386 76.3711 67.386 76.3711H64.3814C64.3814 76.3711 62.7026 81.6605 62.7026 81.7889C62.7026 81.6605 60.885 76.3711 60.885 76.3711H57.7734L60.917 84.7762H64.0498C64.0498 84.7762 65.7392 79.7545 65.7499 79.6154C65.7607 79.7545 67.4393 84.7762 67.4393 84.7762H70.5828L73.6515 76.3711Z" fill="white"/>
<path d="M77.4405 84.7762V76.3711H74.5V84.7762H77.4405Z" fill="white"/>
<path d="M88.8782 76.3711V84.7762H86.0125L81.8533 80.0972V84.7762H79.0947V76.3711H82.1098L86.1408 80.9431V76.3711H88.8782Z" fill="white"/>
<path d="M100.332 84.7762V76.3711H97.5951V80.9431L93.5642 76.3711H90.5489V84.7762H93.3075V80.0972L97.4669 84.7762H100.332Z" fill="white"/>
<path d="M110.846 82.6882V84.7762H102.003V76.3711H110.771V78.4697H104.826V79.5512H110.6V81.5962H104.826V82.6882H110.846Z" fill="white"/>
<path fill-rule="evenodd" clip-rule="evenodd" d="M122.149 78.9301C122.149 78.1699 121.967 77.6239 121.583 77.2277C121.079 76.6924 120.214 76.3711 118.888 76.3711H112.205V84.7762H115.061V81.8103H117.659L119.744 84.7762H122.93L120.396 81.35C120.962 81.2643 121.422 80.9216 121.722 80.5147C121.988 80.1401 122.149 79.5832 122.149 78.9301ZM119.368 79.1979C119.368 79.337 119.347 79.5083 119.272 79.6368C119.166 79.851 118.888 79.9365 118.428 79.9365H115.071V78.4055H118.374C118.823 78.4055 119.124 78.4804 119.272 78.7588C119.347 78.8659 119.368 79.0372 119.368 79.1979Z" fill="white"/>
<path d="M65.1137 61.5421L63.9542 57.9683L62.7945 61.5421H59.0419L62.0778 63.7508L60.9183 67.3246L63.9542 65.116L66.9899 67.3246L65.8304 63.7508L68.8662 61.5421H65.1137Z" fill="white"/>
<path d="M77.3415 57.9658L78.5247 61.5397H82.3538L79.2561 63.7485L80.4394 67.3222L77.3415 65.1135L74.2437 67.3222L75.427 63.7485L72.3291 61.5397H76.1582L77.3415 57.9658Z" fill="white"/>
<path d="M91.8052 61.5397L90.6221 57.9658L89.4389 61.5397H85.6096L88.7075 63.7485L87.5242 67.3222L90.6221 65.1135L93.7199 67.3222L92.5366 63.7485L95.6345 61.5397H91.8052Z" fill="white"/>
<path d="M103.903 57.9658L105.086 61.5397H108.915L105.818 63.7485L107.001 67.3222L103.903 65.1135L100.805 67.3222L101.989 63.7485L98.8906 61.5397H102.72L103.903 57.9658Z" fill="white"/>
<path d="M118.451 61.5397L117.29 57.9658L116.13 61.5397H112.378L115.413 63.7485L114.255 67.3222L117.29 65.1135L120.326 67.3222L119.167 63.7485L122.203 61.5397H118.451Z" fill="white"/>
<path d="M167.134 19.6392C168.244 16.8138 167.762 13.5646 166.739 10.8321C165.663 7.95705 163.79 5.08932 160.99 3.57715C160.85 6.60727 161.775 9.60065 162.785 12.3C163.693 14.7278 164.807 17.3143 166.647 19.3221C166.93 20.8432 167.147 22.3601 167.299 23.87C166.689 22.2752 165.701 20.8216 164.468 19.6526C162.879 18.1468 160.515 16.9851 158.297 17.6722C158.947 20.1276 160.427 22.4817 162.182 24.133C163.562 25.4327 165.385 27.098 167.531 27.1637C167.62 29.3863 167.57 31.5887 167.386 33.7612C167.084 32.1714 166.435 30.6745 165.497 29.5597C164.209 28.0278 162.299 26.1565 159.861 26.4696C159.994 28.9549 160.985 31.5014 162.363 33.4148C163.457 34.9354 164.904 36.8735 166.958 37.3742C166.629 39.5083 166.171 41.6071 165.59 43.6609C165.584 42.0883 165.238 40.5447 164.55 39.3065C163.58 37.5607 162.068 35.3832 159.627 35.2129C159.269 37.6512 159.754 40.3167 160.733 42.4366C161.514 44.1311 162.557 46.292 164.457 47.1861C163.658 49.3963 162.715 51.545 161.631 53.6186C162.012 51.8311 161.997 49.9476 161.547 48.2527C160.927 45.9168 159.389 43.463 156.918 42.7511C156.044 45.3302 156.165 48.2079 156.673 50.8291C157.091 52.9874 157.911 55.522 159.749 56.924C158.547 58.8677 157.217 60.733 155.765 62.5079C156.546 60.7673 156.932 58.8635 156.724 57.1207C156.422 54.5825 155.71 51.8677 153.122 50.5149C151.653 53.0524 151.312 55.8992 151.188 58.7109C151.086 60.9841 151.413 63.788 152.991 65.6374C151.256 67.4423 149.386 69.1316 147.389 70.6895C148.678 69.032 149.582 67.0873 149.772 65.164C150.043 62.4464 149.912 59.455 147.502 57.4605C145.443 59.6148 144.213 62.7873 143.612 65.5429C143.079 67.9791 142.523 70.8629 143.79 73.2606C141.248 74.9234 138.532 76.3883 135.661 77.6291C137.681 76.1874 139.334 74.2094 140.122 72.1672C141.155 69.4907 141.793 66.3012 139.783 63.6205C137.088 65.3486 135.108 68.2969 133.548 70.9861C132.209 73.2936 130.823 76.4785 131.512 79.2265C129.922 79.7665 128.291 80.2408 126.622 80.6454L126.722 81.0558C128.396 80.6496 130.033 80.1738 131.629 79.6321C132.747 82.9407 136.41 84.0341 139.372 84.5166C143.593 85.2041 148.619 83.872 152.222 81.1881C150.319 78.4967 146.44 78.2237 143.514 78.0178L143.476 78.0151C140.271 77.7896 136.803 78.0909 133.581 78.9297C137.303 77.5103 140.788 75.7253 144.002 73.627L144.045 73.697C145.805 76.5604 149.342 76.6724 152.117 76.4914C155.883 76.2461 160.23 73.9538 162.744 70.785C160.378 68.7064 156.885 69.2879 154.176 69.7385L154.162 69.741C151.141 70.2439 147.839 71.341 145.068 73.0304C145.332 72.8224 145.589 72.6024 145.84 72.3716C148.535 70.4474 151.02 68.2951 153.276 65.9484C153.308 65.9797 153.339 66.0105 153.37 66.0411C155.565 68.234 158.751 67.6555 161.24 66.9378C164.578 65.9753 168.038 63.0715 169.696 59.738C167.126 58.296 164.053 59.484 161.664 60.4241C159.038 61.4566 156.261 63.1088 154.125 65.2153C154.346 64.937 154.557 64.6462 154.756 64.3452C156.74 62.1022 158.526 59.7003 160.095 57.1663L160.163 57.2085L160.181 57.2195C162.661 58.8176 165.471 57.6572 167.697 56.5159C170.719 54.9673 173.148 51.5639 174.196 48.2169C171.516 47.3571 168.868 49.0446 166.809 50.3811C164.555 51.8435 162.273 53.9295 160.707 56.322C160.822 56.0859 160.93 55.8444 161.03 55.5985C162.535 52.9695 163.812 50.2098 164.847 47.3469L164.901 47.3651L164.91 47.3686C167.166 48.2239 169.677 46.8891 171.315 45.4254C173.59 43.3898 175.196 40.2603 175.572 37.2029C173.219 36.8977 171.002 38.7205 169.487 40.275C167.743 42.0656 166.175 44.1819 165.212 46.5328C165.284 46.2763 165.345 46.0157 165.396 45.7523C166.271 43.0629 166.935 40.2893 167.372 37.454L167.438 37.4627C169.815 37.8481 172.014 36.037 173.328 34.2792C175.177 31.8055 176.129 28.382 175.89 25.2789C173.515 25.4455 171.704 27.7093 170.532 29.5408C169.172 31.662 168.045 34.0628 167.552 36.5746C167.568 36.3737 167.576 36.1718 167.58 35.9691C167.942 33.0828 168.071 30.1374 167.952 27.1558C170.38 27.0705 172.178 24.8137 173.104 22.8124C174.427 19.95 174.64 16.3313 173.758 13.2819C171.446 13.9317 170.156 16.587 169.396 18.6312C168.518 20.9881 167.907 23.559 167.902 26.1147C167.776 23.9706 167.521 21.8093 167.134 19.6392Z" fill="white"/>
</svg>
