<svg width="36" height="35" viewBox="0 0 36 35" fill="none" xmlns="http://www.w3.org/2000/svg">
<path d="M11.6227 29.0813C11.7141 29.3133 11.8337 29.475 11.9883 29.6438C11.8969 29.7492 11.8055 29.8547 11.7422 29.9812C-5.6601 25.6078 -3.03744 0.471094 15.1032 0C23.0907 0 29.6227 6.15937 30.2344 13.9852C29.7633 14.1539 29.4891 14.7867 29.243 15.1945C29.243 15.0469 29.2501 14.8008 29.2219 14.6602C29.229 14.6531 29.229 14.6531 29.2219 14.6531C28.8001 7.15078 22.711 1.08281 15.1032 1.11797C-1.31478 1.44844 -4.27494 24.3492 11.5243 28.7789C11.5454 28.8703 11.5876 28.9969 11.6227 29.0813ZM29.7633 15.4898C29.4891 16.0102 28.6454 15.7852 28.6594 15.1945C28.6524 15.1242 28.6735 14.85 28.6454 14.7937C28.6243 14.5406 28.3993 14.3086 28.1672 14.2523C27.7524 14.1187 27.3094 14.4422 27.3094 14.8992C27.3376 15.2648 27.2813 15.6516 26.8735 15.7641C26.6133 15.8344 26.3391 15.7219 26.2055 15.4898L25.8118 14.8078C25.3688 14.0555 24.2157 14.7094 24.6516 15.4758L25.7555 17.3883H30.2133L31.3172 15.4758C31.7391 14.7234 30.6493 14.0625 30.1712 14.7797L29.7633 15.4898ZM25.3266 18.5695C24.9258 18.5695 24.9329 19.1742 25.3266 19.1742H30.6422C31.043 19.1742 31.043 18.5625 30.6422 18.5695H25.3266ZM22.9079 32.7797H13.3454C12.4594 32.7937 12.4383 34.1367 13.3454 34.1438H22.9079C23.8008 34.1438 23.8079 32.7937 22.9079 32.7797ZM13.3454 31.5984H22.9079C23.7727 31.5984 23.836 30.2625 22.9149 30.2344C22.9079 30.2344 13.3383 30.2344 13.3313 30.2344C12.4524 30.2625 12.4454 31.5844 13.3454 31.5984ZM13.3524 29.0531H22.9149C23.8149 29.025 23.7868 27.682 22.9079 27.6891H13.3454C12.4383 27.7172 12.4454 29.025 13.3524 29.0531ZM22.9079 25.1367H13.3454C12.4383 25.1648 12.4594 26.4937 13.3454 26.5008H22.9079C23.8149 26.4727 23.8008 25.1438 22.9079 25.1367ZM16.0594 15.1734C16.0243 13.9289 14.1962 13.9219 14.168 15.1734C14.2032 16.4531 16.0383 16.3898 16.0594 15.1734ZM11.9883 27.0914C11.8196 27.2742 11.6719 27.4922 11.5946 27.7312C-2.79838 23.407 -0.119471 2.49609 15.1032 2.1375C21.586 2.1375 26.9579 6.85547 27.9704 13.043C27.3657 13.05 26.8313 13.3383 26.4938 13.7883C25.5376 12.832 23.7446 13.3383 23.4422 14.6602C23.3157 15.1383 23.379 15.6375 23.6251 16.0664L24.5251 17.6273C23.5969 18.1617 23.6251 19.6945 24.6094 20.1656C23.3508 21.5156 22.2821 22.7883 21.4454 23.9555H13.3454C11.7422 23.9203 10.8704 25.9453 11.9883 27.0914ZM14.5196 5.28047C14.5337 6.06094 15.6868 6.05391 15.7008 5.28047V3.93047C15.6868 3.15 14.5337 3.15703 14.5196 3.93047V5.28047ZM5.161 14.6391H3.811C3.03756 14.6531 3.03756 15.8062 3.811 15.8203H5.161C5.93444 15.8133 5.93444 14.6531 5.161 14.6391ZM14.836 17.2828C16.0946 17.4586 17.2547 16.4391 17.2407 15.1734C17.2758 13.4367 15.1383 12.3961 13.8094 13.493L6.30709 9.49219C6.01881 9.3375 5.66022 9.45 5.50553 9.73828C5.35084 10.0266 5.46334 10.3852 5.75162 10.5398L13.1063 14.4703C12.7969 15.2719 13.0641 16.2422 13.704 16.7766L10.5258 20.2852C10.0196 20.8688 10.8704 21.6422 11.4047 21.0797L14.836 17.2828ZM24.7149 33.9469C24.8766 33.3281 24.7149 32.6602 24.2719 32.1891C24.9329 31.5211 24.9399 30.3258 24.279 29.6367C24.9329 28.9688 24.9469 27.7734 24.279 27.0914C25.3829 25.9734 24.5251 23.9203 22.929 23.9555C23.7938 22.8375 24.8415 21.6352 26.0649 20.3625H29.9251C33.7008 24.2789 35.8594 27.6398 35.8594 29.5945C36.1126 34.3195 29.679 34.4883 24.7149 33.9469ZM28.6735 24.9539C29.2079 24.9539 29.6508 25.3898 29.6508 25.9312C29.6649 26.7047 30.818 26.7047 30.8321 25.9312C30.8321 24.968 30.1993 24.1523 29.3274 23.8781V23.5828C29.3133 22.8094 28.1602 22.8094 28.1462 23.5828V23.85C25.7204 24.5039 26.1422 28.0477 28.6735 28.0969C29.2079 28.0969 29.6508 28.5328 29.6508 29.0742C29.6157 30.3609 27.7383 30.3609 27.7032 29.0742C27.6891 28.3008 26.536 28.2937 26.5219 29.0742C26.5219 30.0797 27.218 30.9234 28.1462 31.1625V31.4297C28.1602 32.2031 29.3133 32.2031 29.3274 31.4297V31.1344C31.6337 30.3891 31.1344 26.9508 28.6735 26.9227C27.3868 26.8664 27.3868 24.9891 28.6735 24.9539Z" fill="#FF8800"/>
</svg>
