<svg width="32" height="32" viewBox="0 0 32 32" fill="none" xmlns="http://www.w3.org/2000/svg">
<g clip-path="url(#clip0_125_173)">
<path fill-rule="evenodd" clip-rule="evenodd" d="M11.3191 20.9706H20.6809C20.7507 20.9709 20.8198 20.9554 20.8828 20.9252C20.9459 20.8951 21.0014 20.8511 21.0452 20.7965C21.089 20.7419 21.12 20.6781 21.1358 20.6098C21.1516 20.5415 21.152 20.4706 21.1367 20.4022C20.8783 19.2287 20.2284 18.1788 19.2943 17.4262C18.3603 16.6736 17.1981 16.2633 16.0001 16.2633C14.802 16.2633 13.6399 16.6736 12.7058 17.4262C11.7718 18.1788 11.1218 19.2287 10.8634 20.4022C10.8482 20.4706 10.8485 20.5416 10.8643 20.6098C10.8802 20.6781 10.9112 20.7419 10.955 20.7965C10.9988 20.8511 11.0543 20.8951 11.1174 20.9253C11.1804 20.9554 11.2495 20.9709 11.3194 20.9706H11.3191ZM21.4837 13.7192L23.3708 11.8261C23.4712 11.7277 23.6062 11.6729 23.7466 11.6737C23.8871 11.6744 24.0215 11.7307 24.1208 11.8303C24.2201 11.9299 24.2762 12.0648 24.277 12.2057C24.2778 12.3465 24.2231 12.482 24.125 12.5827L22.2379 14.4757L22.3912 14.4567C22.4618 14.446 22.5338 14.4495 22.603 14.4671C22.6722 14.4847 22.7371 14.5161 22.794 14.5594C22.8509 14.6027 22.8985 14.657 22.9341 14.719C22.9696 14.7811 22.9924 14.8497 23.0011 14.9208C23.0097 14.9919 23.0041 15.064 22.9844 15.1328C22.9648 15.2017 22.9316 15.2658 22.8867 15.3216C22.8419 15.3773 22.7864 15.4234 22.7235 15.4572C22.6606 15.4911 22.5915 15.5118 22.5204 15.5184L20.8405 15.7257C20.7595 15.7371 20.677 15.7296 20.5994 15.704C20.5217 15.6783 20.451 15.6351 20.3927 15.5776C20.3343 15.5202 20.2899 15.4501 20.2628 15.3727C20.2358 15.2953 20.2268 15.2127 20.2366 15.1313L20.4445 13.4356C20.4506 13.364 20.471 13.2943 20.5045 13.2307C20.5381 13.1671 20.584 13.111 20.6397 13.0657C20.6953 13.0203 20.7595 12.9867 20.8284 12.9668C20.8973 12.9469 20.9695 12.9411 21.0406 12.9499C21.1118 12.9586 21.1805 12.9816 21.2426 13.0176C21.3047 13.0535 21.3589 13.1017 21.402 13.1591C21.4451 13.2166 21.4763 13.2822 21.4935 13.352C21.5108 13.4218 21.5139 13.4943 21.5026 13.5654L21.4837 13.7192ZM9.76196 14.4757L7.8749 12.5827C7.77729 12.4819 7.72315 12.3466 7.72416 12.2061C7.72518 12.0655 7.78128 11.931 7.88034 11.8317C7.9794 11.7323 8.11347 11.676 8.25356 11.675C8.39365 11.6739 8.52853 11.7282 8.62903 11.8261L10.5162 13.7192L10.4973 13.5654C10.4865 13.4946 10.49 13.4223 10.5076 13.353C10.5252 13.2836 10.5565 13.2184 10.5996 13.1614C10.6428 13.1043 10.6969 13.0565 10.7588 13.0208C10.8206 12.9852 10.889 12.9623 10.9599 12.9536C11.0308 12.945 11.1026 12.9506 11.1712 12.9703C11.2399 12.99 11.3039 13.0233 11.3594 13.0683C11.415 13.1133 11.461 13.169 11.4947 13.2321C11.5284 13.2952 11.5491 13.3645 11.5556 13.4358L11.7636 15.1315C11.7733 15.2129 11.7644 15.2955 11.7373 15.3728C11.7102 15.4502 11.6658 15.5203 11.6074 15.5778C11.5491 15.6352 11.4784 15.6784 11.4007 15.7041C11.3231 15.7298 11.2406 15.7372 11.1596 15.7258L9.47963 15.5185C9.40854 15.512 9.33947 15.4912 9.27653 15.4574C9.2136 15.4236 9.15806 15.3775 9.11322 15.3218C9.06839 15.266 9.03516 15.2018 9.01551 15.133C8.99586 15.0641 8.99019 14.992 8.99884 14.921C9.00749 14.8499 9.03027 14.7812 9.06585 14.7192C9.10142 14.6571 9.14906 14.6028 9.20594 14.5595C9.26282 14.5162 9.32778 14.4848 9.39698 14.4672C9.46617 14.4496 9.53819 14.4461 9.60876 14.4569L9.7621 14.4758L9.76196 14.4757ZM26.5475 26.6788C27.168 26.6788 27.7689 26.8969 28.2456 27.2953C28.7223 27.6937 29.0447 28.2472 29.1566 28.8594C29.2686 29.4716 29.163 30.1038 28.8583 30.646C28.5536 31.1882 28.069 31.6061 27.4889 31.8269C26.9088 32.0477 26.2699 32.0576 25.6833 31.8547C25.0967 31.6517 24.5996 31.249 24.2785 30.7164C23.9574 30.1838 23.8325 29.5551 23.9258 28.9397C24.019 28.3244 24.3243 27.7613 24.7886 27.3484L22.425 23.2418C22.3896 23.1811 22.3665 23.114 22.357 23.0443C22.3476 22.9746 22.352 22.9037 22.37 22.8357C22.388 22.7677 22.4192 22.704 22.4619 22.6482C22.5046 22.5924 22.5579 22.5456 22.6187 22.5106C22.6794 22.4755 22.7466 22.4529 22.8161 22.444C22.8857 22.4351 22.9563 22.4401 23.0239 22.4588C23.0915 22.4774 23.1548 22.5093 23.21 22.5525C23.2653 22.5958 23.3115 22.6497 23.3459 22.7109L25.708 26.8151C25.9787 26.7246 26.2622 26.6786 26.5475 26.6788ZM16.5333 26.7327C17.1768 26.8652 17.7483 27.2326 18.1372 27.7637C18.5261 28.2948 18.7046 28.9518 18.6382 29.6074C18.5718 30.263 18.2652 30.8705 17.7778 31.3123C17.2904 31.7541 16.6568 31.9987 15.9999 31.9987C15.343 31.9987 14.7095 31.7541 14.2221 31.3123C13.7347 30.8705 13.4281 30.263 13.3617 29.6074C13.2953 28.9518 13.4738 28.2948 13.8627 27.7637C14.2516 27.2326 14.8231 26.8652 15.4666 26.7327V22.9764C15.4666 22.8345 15.5228 22.6984 15.6228 22.598C15.7228 22.4977 15.8585 22.4414 15.9999 22.4414C16.1414 22.4414 16.277 22.4977 16.3771 22.598C16.4771 22.6984 16.5333 22.8345 16.5333 22.9764V26.7327ZM5.45238 26.6788C4.8319 26.6788 4.23102 26.8969 3.7543 27.2953C3.27758 27.6937 2.95519 28.2472 2.84324 28.8594C2.73128 29.4716 2.83684 30.1038 3.14155 30.646C3.44626 31.1882 3.93083 31.6061 4.51094 31.8269C5.09106 32.0477 5.73 32.0576 6.31658 31.8547C6.90317 31.6517 7.40027 31.249 7.72139 30.7164C8.04252 30.1838 8.16733 29.5551 8.07412 28.9397C7.98091 28.3244 7.67557 27.7613 7.21124 27.3484L9.57483 23.2418C9.61027 23.1811 9.63339 23.114 9.64284 23.0443C9.65228 22.9746 9.64788 22.9037 9.62988 22.8357C9.61188 22.7677 9.58064 22.704 9.53797 22.6482C9.49529 22.5924 9.44202 22.5456 9.38122 22.5106C9.32043 22.4755 9.25332 22.4529 9.18377 22.444C9.11422 22.4351 9.0436 22.4401 8.97599 22.4588C8.90838 22.4774 8.84511 22.5093 8.78984 22.5525C8.73457 22.5958 8.68839 22.6497 8.65397 22.7109L6.29184 26.8151C6.02116 26.7246 5.73769 26.6786 5.45238 26.6788ZM27.2636 0.0920898L28.7303 0.941409L23.6606 3.87724V6.1896L25.1308 7.04106V4.7289L30.1999 1.7928L31.6665 2.64212C31.769 2.69956 31.854 2.78371 31.9127 2.88565C31.9714 2.9876 32.0015 3.10356 31.9999 3.22126V8.32132C32.0015 8.43904 31.9714 8.55501 31.9127 8.65697C31.854 8.75893 31.769 8.84308 31.6665 8.90053L27.2636 11.4505C27.1628 11.5108 27.0476 11.5426 26.9303 11.5426C26.8129 11.5426 26.6978 11.5108 26.597 11.4505L22.194 8.90053C22.0916 8.84308 22.0066 8.75893 21.9479 8.65697C21.8892 8.55501 21.8591 8.43904 21.8607 8.32132V3.22119C21.8591 3.10349 21.8892 2.98753 21.9479 2.88559C22.0066 2.78364 22.0916 2.6995 22.194 2.64205L26.597 0.0920898C26.6978 0.0318186 26.8129 0 26.9303 0C27.0476 0 27.1628 0.0318186 27.2636 0.0920898ZM5.40291 0.0920898L6.86957 0.941409L1.79999 3.87744V6.1898L3.27012 7.04126V4.7289L8.33977 1.79307L9.80643 2.64239C9.90886 2.69983 9.99391 2.78397 10.0526 2.88592C10.1113 2.98787 10.1414 3.10382 10.1398 3.22153V8.32159C10.1414 8.43931 10.1113 8.55528 10.0526 8.65724C9.99393 8.7592 9.90887 8.84335 9.80643 8.9008L5.40351 11.4508C5.30271 11.511 5.18754 11.5429 5.07018 11.5429C4.95283 11.5429 4.83766 11.511 4.73685 11.4508L0.333334 8.90046C0.230895 8.84301 0.145838 8.75886 0.0871618 8.6569C0.0284852 8.55494 -0.00162988 8.43897 1.92545e-06 8.32126V3.22119C-0.0016178 3.10349 0.028503 2.98753 0.087179 2.88559C0.145855 2.78364 0.230905 2.6995 0.333334 2.64205L4.73625 0.0920898C4.83706 0.0318186 4.95223 0 5.06958 0C5.18694 0 5.30211 0.0318186 5.40291 0.0920898ZM15.9999 10.2589C16.5259 10.2589 17.04 10.4154 17.4773 10.7085C17.9146 11.0016 18.2554 11.4182 18.4567 11.9056C18.6579 12.393 18.7106 12.9294 18.608 13.4468C18.5054 13.9642 18.2521 14.4395 17.8802 14.8126C17.5083 15.1856 17.0345 15.4397 16.5187 15.5426C16.0028 15.6455 15.4682 15.5927 14.9823 15.3908C14.4964 15.1889 14.0811 14.847 13.7889 14.4083C13.4967 13.9696 13.3408 13.4539 13.3408 12.9263C13.3408 12.2189 13.621 11.5404 14.1197 11.0402C14.6184 10.5399 15.2947 10.2589 15.9999 10.2589Z" fill="#FF8800"/>
</g>
<defs>
<clipPath id="clip0_125_173">
<rect width="32" height="32" fill="white"/>
</clipPath>
</defs>
</svg>
