<svg width="32" height="32" viewBox="0 0 32 32" fill="none" xmlns="http://www.w3.org/2000/svg">
<g clip-path="url(#clip0_125_159)">
<path d="M10.6819 26.1477C11.117 25.5941 11.032 24.7814 10.4869 24.3395C10.2269 24.1262 9.94688 24.0246 9.65686 24.0246C9.60685 24.0246 9.55685 24.0297 9.50684 24.0348C9.16681 24.0754 8.86679 24.2481 8.66177 24.5224L6.98662 26.7217C6.79661 26.9655 6.7016 27.2397 6.7016 27.5242C6.7016 27.9153 6.87661 28.281 7.17664 28.5299C7.71669 28.9718 8.51676 28.8803 8.9568 28.3318L10.6819 26.1477Z" fill="#FF8800"/>
<path d="M6.25622 26.0107L7.94137 23.8063C8.13139 23.5523 8.2364 23.2526 8.2364 22.9377C8.2364 22.5009 8.04138 22.0946 7.70135 21.8203C7.46133 21.6273 7.1663 21.5257 6.86128 21.5257C6.80127 21.5257 6.74126 21.5308 6.68126 21.5359C6.31123 21.5816 5.9862 21.7746 5.76118 22.0692L4.07603 24.2736C3.61099 24.8881 3.716 25.7719 4.31605 26.2443C4.61108 26.4779 4.97111 26.5795 5.33614 26.5338C5.70617 26.4932 6.0312 26.3052 6.25622 26.0107Z" fill="#FF8800"/>
<path d="M3.05105 19.2603L4.55618 17.188L5.10123 16.4363C5.10623 16.4312 5.10623 16.4312 5.11123 16.4261L8.38151 11.9209L8.39652 11.9056L8.47152 11.804C8.53653 11.7177 8.52153 11.5755 8.42652 11.5044L6.05631 9.60473C6.00631 9.5641 5.9563 9.55902 5.9213 9.55902C5.9113 9.55902 5.9013 9.55902 5.8913 9.55902C5.85629 9.5641 5.79129 9.57934 5.74128 9.64537L0.0457868 17.4978C-0.0292197 17.5994 -0.00921803 17.7366 0.0857903 17.8178L2.436 19.7022C2.486 19.7429 2.546 19.7581 2.61101 19.7479C2.65101 19.7429 2.71102 19.7225 2.76102 19.6565L3.04605 19.2654C3.04605 19.2654 3.04605 19.2603 3.05105 19.2603Z" fill="#FF8800"/>
<path d="M13.0021 28.4284L13.0221 28.3979C13.0271 28.3928 13.0321 28.3878 13.0321 28.3827C13.0371 28.3725 13.0471 28.3573 13.0521 28.3471C13.1771 28.1643 13.2421 27.9459 13.2421 27.7224C13.2421 27.3668 13.0821 27.0418 12.8071 26.8335C12.612 26.6862 12.387 26.6151 12.157 26.6151C11.837 26.6151 11.5169 26.7573 11.3069 27.0265L10.0318 28.6316C9.8418 28.8703 9.76179 29.17 9.8018 29.4747C9.8418 29.7744 9.99181 30.0334 10.2318 30.2163L10.3218 30.2925C10.5219 30.4448 10.8119 30.516 11.1019 30.4753C11.3919 30.4347 11.642 30.2772 11.817 30.0436L13.0021 28.4284Z" fill="#FF8800"/>
<path d="M16.0022 8.99525C18.4424 8.99525 20.4275 6.97879 20.4275 4.50013C20.4275 2.02147 18.4424 -6.10352e-05 16.0022 -6.10352e-05C13.562 -6.10352e-05 11.5718 2.01639 11.5718 4.50013C11.5718 6.97879 13.562 8.99525 16.0022 8.99525ZM13.797 4.38839C13.992 4.1903 14.307 4.1903 14.502 4.38839L15.2171 5.11472L17.4973 2.79859C17.6923 2.6005 18.0073 2.6005 18.2024 2.79859C18.3974 2.99668 18.3974 3.31667 18.2024 3.51476L15.5721 6.18643C15.4771 6.28294 15.3521 6.33373 15.2171 6.33373C15.0821 6.33373 14.9571 6.27786 14.8621 6.18643L13.792 5.09948C13.602 4.90647 13.602 4.58648 13.797 4.38839Z" fill="#FF8800"/>
<path d="M25.0282 15.1106L23.9381 12.3779L23.2931 12.7437C22.843 13.0027 22.298 13.1094 21.7679 13.0332L16.1274 12.1849C15.4374 12.0834 14.7223 12.317 14.2223 12.8046L13.6872 13.3278C13.6872 13.3278 13.6872 13.3278 13.6822 13.3328L11.612 15.3493C11.477 15.4814 11.447 15.6337 11.447 15.7404C11.447 15.908 11.527 16.1315 11.752 16.2382C12.7721 16.7359 13.9722 16.7105 14.9723 16.1772L15.5174 15.8877C15.8674 15.6998 16.2524 15.6083 16.6375 15.6083C17.1775 15.6083 17.7126 15.7912 18.1476 16.1518L18.4176 16.3702L23.4531 20.4692C23.6981 20.6622 23.9531 20.8247 24.2131 20.9364C24.2981 20.972 24.3982 21.0126 24.4932 21.0482C24.5582 21.0736 24.6282 21.099 24.6982 21.1142C24.7932 21.1447 24.8632 21.1599 24.9332 21.1701C25.0432 21.1904 25.1432 21.2107 25.2432 21.2158C25.3632 21.231 25.4482 21.2361 25.5333 21.2361C25.7483 21.2412 25.9333 21.2361 26.1033 21.2107L27.3834 21.0279L25.0282 15.1106Z" fill="#FF8800"/>
<path d="M28.0632 9.72155C28.0332 9.64537 27.9832 9.60981 27.9432 9.59457C27.9132 9.57934 27.8432 9.5641 27.7682 9.59965L24.7029 10.9812C24.5879 11.032 24.5329 11.1641 24.5779 11.2758L24.793 11.8142L25.243 12.9367L28.5083 21.1244C28.5833 21.2565 28.7033 21.2869 28.7983 21.2412L31.8686 19.8648C31.9786 19.814 32.0286 19.687 31.9836 19.5702L28.0632 9.72155Z" fill="#FF8800"/>
<path d="M25.1533 22.2165C25.0483 22.2114 24.9132 22.186 24.7782 22.1606C24.6782 22.1454 24.5582 22.12 24.4382 22.0794C24.3582 22.0591 24.2582 22.0235 24.1632 21.993C24.0532 21.9524 23.9382 21.9067 23.8231 21.8559C23.4831 21.7035 23.1581 21.5003 22.8431 21.2515L17.5326 16.9341C17.0926 16.5735 16.4875 16.5125 15.9875 16.7767L15.4424 17.0662C14.1723 17.7468 12.6322 17.7773 11.3321 17.1475C10.792 16.8884 10.452 16.3449 10.452 15.7354C10.452 15.3088 10.617 14.9126 10.922 14.6129L12.0871 13.4803H10.0219C9.64691 13.4803 9.28688 13.3431 9.01185 13.0942L8.86684 12.9571L5.91158 17.0357C5.89658 17.0509 5.88658 17.0713 5.87158 17.0865L5.60656 17.4522L4.78648 18.5849L4.15143 19.4585L4.45645 19.6921C4.89149 20.0121 5.15652 20.5455 5.15652 21.1143V21.2616C5.53155 20.8654 6.02159 20.6064 6.56664 20.5353C7.20169 20.454 7.82675 20.6267 8.32679 21.0229C8.91184 21.4902 9.24187 22.186 9.24187 22.9378C9.24187 22.9784 9.23187 23.019 9.23187 23.0597C9.28688 23.0495 9.34188 23.0292 9.39689 23.0241C10.0069 22.953 10.607 23.1257 11.087 23.5219C11.7321 24.0552 12.0221 24.8476 11.9421 25.6094C12.4472 25.5536 12.9722 25.6856 13.4122 26.0209C13.9423 26.4221 14.2523 27.0418 14.2523 27.7224C14.2523 27.7376 14.2473 27.7529 14.2473 27.7732C14.7574 27.6919 15.2924 27.7935 15.7374 28.083C16.3475 28.4843 16.7125 29.1649 16.7125 29.9065C16.7125 30.3331 16.5925 30.7395 16.3725 31.0848L16.3875 31.095C16.8425 31.4455 17.5376 31.4048 17.9426 30.9883C18.1877 30.7395 18.3127 30.4042 18.2877 30.0538C18.2677 29.7084 18.0976 29.3884 17.8226 29.1751L14.8474 26.8183C14.6323 26.6456 14.5923 26.3256 14.7624 26.1072C14.9324 25.8888 15.2474 25.8482 15.4624 26.0209L18.8627 28.7128C19.2877 29.043 19.8878 29.0024 20.2678 28.6163C20.4929 28.3878 20.6029 28.0779 20.5779 27.758C20.5529 27.438 20.3928 27.1484 20.1328 26.9656C19.8728 26.7827 20.1328 26.9656 20.1278 26.9656L16.6825 24.4615C16.4575 24.299 16.4075 23.979 16.5675 23.7504C16.7275 23.5219 17.0376 23.4711 17.2676 23.6336L20.8729 26.2545C21.4229 26.6507 22.188 26.5542 22.623 26.031C22.8581 25.7466 22.9631 25.386 22.9181 25.0202C22.8731 24.6545 22.688 24.3295 22.393 24.1111L20.6629 22.8057L18.6077 21.2565C18.3877 21.0889 18.3377 20.774 18.5027 20.5455C18.5427 20.4896 18.5927 20.4489 18.6427 20.4185L18.6477 20.4134C18.8177 20.3118 19.0327 20.3169 19.2027 20.4388L23.3831 23.5777C23.8381 23.9181 24.5082 23.8673 24.9232 23.4558C25.2383 23.1359 25.3433 22.6584 25.2083 22.2318C25.1883 22.2216 25.1683 22.2216 25.1533 22.2165Z" fill="#FF8800"/>
<path d="M15.2923 30.902L15.5273 30.5312C15.6473 30.3484 15.7073 30.1299 15.7073 29.9014C15.7073 29.5052 15.5123 29.1395 15.1923 28.9312C14.8272 28.6925 14.3522 28.6925 13.9772 28.9211C13.9372 28.9414 13.9222 28.9617 13.8972 28.982C13.8922 28.9871 13.8822 28.9922 13.8772 28.9973C13.8722 28.9973 13.8722 29.0024 13.8672 29.0074C13.8472 29.0227 13.8222 29.0531 13.8022 29.0735C13.6621 29.2512 13.3071 29.7185 12.9921 30.1401C12.8121 30.3991 12.7421 30.709 12.7971 31.0188C12.8571 31.3337 13.0321 31.5978 13.2971 31.7705L13.3671 31.8162C13.6121 31.9788 13.9172 32.0397 14.2072 31.9737C14.5072 31.9077 14.7622 31.7299 14.9272 31.4709L15.2923 30.902C15.2873 30.9071 15.2873 30.9071 15.2923 30.902Z" fill="#FF8800"/>
</g>
<defs>
<clipPath id="clip0_125_159">
<rect width="32" height="32" fill="white"/>
</clipPath>
</defs>
</svg>
