<svg width="32" height="32" viewBox="0 0 32 32" fill="none" xmlns="http://www.w3.org/2000/svg">
<g clip-path="url(#clip0_125_178)">
<path fill-rule="evenodd" clip-rule="evenodd" d="M12.9147 4.22298V6.10352e-05H10.1966V4.22298C10.1966 4.45495 10.0092 4.6422 9.78016 4.6422H8.39402L11.5578 8.86023L14.718 4.6422H13.3319C13.1015 4.6422 12.9147 4.45425 12.9147 4.22298ZM21.1267 26.2773C21.1809 26.5023 21.0414 26.7287 20.8206 26.7825L13.697 28.4887C13.0452 28.6452 12.39 28.5146 11.866 28.1785L3.45267 23.2645C2.88836 22.9341 2.26783 22.8453 1.66118 23.0081C1.01218 23.1828 0.456204 23.6244 0.0966561 24.2532C0.000175083 24.4195 -0.0255068 24.6144 0.0258572 24.801C0.0737506 24.9882 0.193137 25.1433 0.357641 25.2398L11.4183 31.6671C11.9284 31.964 12.4303 32.059 12.9918 31.9654L25.8154 29.8365C25.9119 29.8211 26.0112 29.8393 26.0931 29.8875L28.4829 31.2821C28.4836 31.2821 28.4836 31.2828 28.4843 31.2828L31.9999 25.1538C31.9992 25.1531 31.9986 25.1531 31.9979 25.1524L27.026 22.2514C25.5801 21.4067 24.0323 21.2251 22.431 21.71L12.8072 24.6235C11.9458 24.8848 11.4384 25.6974 11.6306 26.5128C11.7271 26.9173 11.9708 27.2471 12.2914 27.4581L12.3227 27.4749C12.3338 27.4826 12.3456 27.491 12.3595 27.4993C12.6912 27.6964 13.0994 27.7697 13.5047 27.6726L20.6256 25.9657C20.8491 25.9133 21.0754 26.0523 21.1267 26.2773ZM11.1399 21.3725L4.3793 17.4668V10.28L11.1399 14.1857V21.3725ZM18.7314 10.28V17.4668L11.9708 21.3725V14.1857L18.7314 10.28ZM18.3121 9.55613L11.5571 13.4597L4.80201 9.55613L9.1506 7.04292L11.2225 9.80836C11.3016 9.91316 11.4266 9.97535 11.5571 9.97535C11.6876 9.97535 11.809 9.91386 11.8889 9.80836L13.9608 7.04292L18.3121 9.55613Z" fill="#FF8800"/>
</g>
<defs>
<clipPath id="clip0_125_178">
<rect width="32" height="32" fill="white"/>
</clipPath>
</defs>
</svg>
